<?xml version="1.0" encoding="utf-8"?>
<!-- Generator: Adobe Illustrator 22.0.0, SVG Export Plug-In . SVG Version: 6.00 Build 0)  -->
<svg version="1.1" id="Layer_1" xmlns="http://www.w3.org/2000/svg" xmlns:xlink="http://www.w3.org/1999/xlink" x="0px" y="0px"
	 viewBox="0 0 330 310" style="enable-background:new 0 0 330 310;" xml:space="preserve">
<style type="text/css">
	.st0{fill:#FF0000;}
	.st1{fill:#FFFFFF;}
	.st2{fill:#F20A0A;}
	.st3{opacity:0.2;}
	.st4{fill:#B3B3B3;}
</style>
<path class="st0" d="M307.4,242H22.6c-12,0-21.8-9.8-21.8-21.8V75.8c0-12,9.8-21.8,21.8-21.8h284.9c12,0,21.8,9.8,21.8,21.8v144.4
	C329.2,232.2,319.5,242,307.4,242z"/>
<g>
	<path class="st1" d="M-413.3,121.2l-31.4,11.9v-6.2l9.7-3.6v-10.4l-9.7-3.6v-6.2l31.4,11.9V121.2z M-419.7,118.1l-10.9-3.6v7.1
		L-419.7,118.1z"/>
	<path class="st1" d="M-413.3,163.9h-17.6c-2.3,0-4.3-0.2-6.1-0.7c-1.8-0.5-3.3-1.2-4.5-2.3c-1.2-1-2.2-2.4-2.8-4.1
		c-0.6-1.7-0.9-3.7-0.9-6.1c0-2.4,0.3-4.5,1-6.2s1.6-3,2.8-4c1.2-1,2.7-1.8,4.5-2.2c1.8-0.4,3.8-0.7,6-0.7h17.6v6.2h-18.3
		c-1.4,0-2.6,0.1-3.7,0.4c-1.1,0.2-2.1,0.6-2.8,1.2c-0.8,0.5-1.4,1.3-1.8,2.1c-0.4,0.9-0.6,1.9-0.6,3.2c0,1.3,0.2,2.4,0.6,3.3
		c0.4,0.9,1,1.6,1.8,2.1c0.8,0.5,1.7,0.9,2.9,1.2c1.1,0.2,2.4,0.3,3.7,0.3h18.3V163.9z"/>
	<path class="st1" d="M-443.8,193.9c-0.4-1.3-0.8-2.7-1-4.3c-0.3-1.6-0.4-3.1-0.4-4.7c0-2.7,0.3-5,1-6.9s1.6-3.4,2.9-4.6
		c1.3-1.2,2.9-2,4.9-2.6c2-0.5,4.3-0.8,7-0.8c2.8,0,5.2,0.3,7.3,0.8c2.1,0.5,3.8,1.3,5.2,2.5c1.4,1.1,2.4,2.6,3.1,4.3
		c0.7,1.8,1,3.9,1,6.4c0,0.9,0,1.8-0.1,2.6c-0.1,0.9-0.2,1.7-0.3,2.5c-0.1,0.8-0.3,1.5-0.5,2.2c-0.2,0.7-0.4,1.3-0.6,1.8l-4.4-1.4
		c0.4-1,0.7-2.1,1-3.3c0.3-1.2,0.4-2.4,0.4-3.7c0-1.6-0.2-2.9-0.7-4c-0.5-1.1-1.2-1.9-2.1-2.6c-0.9-0.7-2.1-1.1-3.6-1.4
		c-1.4-0.3-3.1-0.4-5.1-0.4c-2.1,0-3.8,0.2-5.3,0.5c-1.5,0.3-2.7,0.8-3.7,1.6c-1,0.7-1.7,1.6-2.1,2.8c-0.5,1.2-0.7,2.6-0.7,4.2
		c0,1.3,0.1,2.5,0.3,3.8c0.2,1.3,0.5,2.5,0.9,3.5L-443.8,193.9z"/>
	<path class="st1" d="M-413.3,222.1h-4.5V213h-26.9v-6.1h26.9v-9.3h4.5V222.1z"/>
	<path class="st1" d="M-413.3,234.6h-31.4v-6.1h31.4V234.6z"/>
	<path class="st1" d="M-412.8,255.9c0,2.6-0.4,4.8-1.2,6.6s-1.9,3.3-3.3,4.4c-1.4,1.1-3.1,1.9-5.1,2.4c-2,0.5-4.2,0.7-6.6,0.7
		c-2.4,0-4.6-0.2-6.6-0.7c-2-0.5-3.7-1.3-5.1-2.4c-1.4-1.1-2.5-2.6-3.3-4.4s-1.2-4-1.2-6.6c0-2.6,0.4-4.8,1.2-6.6
		c0.8-1.8,1.9-3.3,3.3-4.4c1.4-1.1,3.1-2,5.1-2.5c2-0.5,4.2-0.8,6.7-0.8c2.4,0,4.7,0.3,6.7,0.8c2,0.5,3.7,1.3,5.1,2.5
		c1.4,1.1,2.5,2.6,3.3,4.4C-413.2,251.2-412.8,253.4-412.8,255.9z M-417.3,255.9c0-1.5-0.2-2.8-0.7-3.8s-1.2-1.8-2.2-2.5
		c-1-0.6-2.2-1.1-3.7-1.3c-1.5-0.3-3.2-0.4-5.1-0.4c-1.9,0-3.6,0.1-5.1,0.4c-1.5,0.3-2.7,0.7-3.7,1.3c-1,0.6-1.7,1.4-2.2,2.5
		c-0.5,1-0.7,2.3-0.7,3.8c0,1.5,0.2,2.8,0.7,3.8c0.5,1,1.2,1.8,2.2,2.5c1,0.6,2.2,1.1,3.7,1.3c1.5,0.3,3.2,0.4,5.1,0.4
		c2,0,3.7-0.1,5.1-0.4c1.5-0.3,2.7-0.7,3.7-1.3c1-0.6,1.7-1.4,2.2-2.5C-417.5,258.7-417.3,257.5-417.3,255.9z"/>
	<path class="st1" d="M-413.3,303.3h-31.4v-6.7l23.5-13.7h-23.5v-6.1h31.4v6.7l-23.5,13.7h23.5V303.3z"/>
	<path class="st1" d="M-439.2,311c-0.5,1.2-0.9,2.5-1.2,3.9s-0.5,2.9-0.5,4.5c0,1,0.1,2,0.3,2.9c0.2,0.9,0.5,1.6,0.9,2.3
		c0.4,0.6,0.9,1.1,1.6,1.5s1.4,0.5,2.3,0.5c1,0,1.7-0.2,2.3-0.6c0.6-0.4,1-0.9,1.4-1.6c0.4-0.7,0.7-1.5,0.9-2.5
		c0.2-1,0.5-2.1,0.8-3.3c0.3-1.4,0.8-2.6,1.2-3.7c0.5-1.1,1-2.1,1.7-2.9c0.7-0.8,1.6-1.4,2.6-1.8c1-0.4,2.3-0.7,3.9-0.7
		c1,0,2,0.2,2.8,0.5c0.8,0.3,1.5,0.8,2.1,1.4c0.6,0.6,1.1,1.3,1.5,2c0.4,0.8,0.8,1.6,1,2.4c0.3,0.8,0.5,1.7,0.6,2.6
		c0.1,0.9,0.2,1.7,0.2,2.5c0,0.6,0,1.2-0.1,2c-0.1,0.8-0.2,1.6-0.3,2.5c-0.2,0.9-0.4,1.8-0.6,2.7c-0.2,0.9-0.6,1.8-0.9,2.7l-3.8-1.5
		c0.4-1.2,0.8-2.4,1-3.6c0.3-1.3,0.4-2.6,0.4-4c0-0.9-0.1-1.7-0.2-2.4c-0.1-0.7-0.4-1.4-0.7-1.9c-0.3-0.5-0.7-0.9-1.2-1.2
		c-0.5-0.3-1.1-0.4-1.8-0.4c-0.9,0-1.6,0.2-2.1,0.5c-0.5,0.4-0.9,0.9-1.2,1.5c-0.3,0.7-0.6,1.5-0.8,2.5c-0.2,1-0.5,2.1-0.8,3.3
		c-0.3,1.3-0.8,2.6-1.2,3.7c-0.5,1.1-1.1,2.1-1.8,2.9c-0.8,0.8-1.7,1.5-2.8,1.9c-1.1,0.5-2.5,0.7-4.1,0.7c-1.4,0-2.7-0.2-3.7-0.7
		c-1-0.5-1.9-1-2.6-1.8c-0.7-0.7-1.2-1.6-1.6-2.5s-0.7-1.9-0.9-2.8c-0.2-1-0.4-1.9-0.4-2.8c-0.1-0.9-0.1-1.7-0.1-2.4
		c0-0.7,0.1-1.4,0.1-2.3c0.1-0.8,0.2-1.7,0.4-2.6c0.2-0.9,0.4-1.8,0.6-2.8c0.3-0.9,0.6-1.8,1-2.7L-439.2,311z"/>
</g>
<g>
	<path d="M-797.9-16.4l-5.5-13.9h-27.4l-5.2,13.9h-18.6l29.7-70.8h16.6l29.4,70.8H-797.9z M-816.9-68.3l-9,24.3h17.8L-816.9-68.3z"
		/>
	<path d="M-716.9-31.5c-1.4,3.5-3.5,6.5-6.1,9c-2.7,2.5-5.9,4.4-9.6,5.8c-3.8,1.4-8,2.1-12.6,2.1c-4.7,0-8.9-0.7-12.6-2.1
		c-3.7-1.4-6.9-3.3-9.5-5.8c-2.6-2.5-4.6-5.5-6-9c-1.4-3.5-2.1-7.4-2.1-11.7v-44.1h17v42.7c0,1.9,0.2,3.8,0.8,5.5
		c0.5,1.7,1.3,3.3,2.3,4.6c1,1.4,2.4,2.5,4.1,3.2c1.7,0.8,3.8,1.2,6.1,1.2s4.5-0.4,6.1-1.2c1.7-0.8,3.1-1.9,4.2-3.2
		c1.1-1.4,1.8-2.9,2.3-4.6c0.5-1.7,0.7-3.6,0.7-5.5v-42.7h17.1v44.1C-714.8-38.8-715.5-35-716.9-31.5z"/>
	<path d="M-650.3-17.7c-4.6,2.1-9.9,3.1-15.9,3.1c-5.5,0-10.5-0.9-15.1-2.7c-4.6-1.8-8.7-4.4-12.1-7.7c-3.4-3.3-6.1-7.2-8-11.8
		c-1.9-4.6-2.9-9.7-2.9-15.2c0-5.7,1-10.8,3-15.4c2-4.6,4.7-8.5,8.1-11.8c3.5-3.2,7.5-5.7,12.2-7.5c4.7-1.7,9.7-2.6,15.1-2.6
		c5,0,9.9,0.9,14.8,2.7c4.8,1.8,8.8,4.3,11.8,7.8L-651-67.1c-1.6-2.2-3.7-3.8-6.3-4.9c-2.6-1.1-5.3-1.6-8-1.6c-3,0-5.8,0.6-8.2,1.7
		c-2.5,1.1-4.6,2.6-6.5,4.5c-1.8,1.9-3.2,4.2-4.2,6.9c-1,2.6-1.5,5.5-1.5,8.6c0,3.2,0.5,6.1,1.5,8.8c1,2.7,2.4,5,4.1,6.9
		c1.8,1.9,3.9,3.4,6.4,4.5c2.5,1.1,5.2,1.6,8.1,1.6c3.4,0,6.4-0.7,8.9-2c2.5-1.3,4.6-3.1,6.1-5.2l11.9,11.2
		C-641.8-22.6-645.7-19.8-650.3-17.7z"/>
	<path d="M-601.7-72.6v56.2h-17.1v-56.2h-20v-14.6h57.1v14.6H-601.7z"/>
	<path d="M-573.9-16.4v-70.8h17.2v70.8H-573.9z"/>
	<path d="M-468.3-52.1c0,5.6-1,10.7-2.9,15.4c-1.9,4.6-4.6,8.6-8,11.9c-3.4,3.3-7.5,5.9-12.2,7.7c-4.7,1.8-9.9,2.7-15.4,2.7
		c-5.5,0-10.7-0.9-15.3-2.7c-4.7-1.8-8.8-4.4-12.2-7.7c-3.4-3.3-6.1-7.3-8-11.9c-1.9-4.6-2.9-9.8-2.9-15.4c0-5.7,1-10.8,2.9-15.3
		c1.9-4.6,4.6-8.5,8-11.7c3.4-3.2,7.5-5.7,12.2-7.4c4.7-1.7,9.8-2.6,15.3-2.6c5.5,0,10.7,0.9,15.4,2.6c4.7,1.7,8.8,4.2,12.2,7.4
		c3.4,3.2,6.1,7.1,8,11.7C-469.2-62.9-468.3-57.8-468.3-52.1z M-486.6-52.1c0-3.1-0.5-5.9-1.5-8.6c-1-2.7-2.4-5-4.1-6.9
		c-1.8-1.9-3.9-3.4-6.4-4.5s-5.2-1.6-8.2-1.6s-5.7,0.5-8.2,1.6c-2.5,1.1-4.6,2.6-6.4,4.5c-1.8,1.9-3.2,4.2-4.2,6.9
		c-1,2.7-1.5,5.5-1.5,8.6c0,3.2,0.5,6.2,1.5,8.9c1,2.7,2.4,5,4.2,7c1.8,1.9,3.9,3.4,6.3,4.5c2.5,1.1,5.2,1.6,8.2,1.6
		s5.7-0.5,8.2-1.6c2.5-1.1,4.6-2.6,6.4-4.5c1.8-1.9,3.2-4.2,4.2-7C-487.1-46-486.6-48.9-486.6-52.1z"/>
	<path d="M-412-16.4l-28.5-46.3h-0.3l0.4,46.3H-457v-70.8h19.5l28.4,46.2h0.3l-0.4-46.2h16.6v70.8H-412z"/>
	<path d="M-340.6-68.8c-1.5-1.9-3.4-3.4-5.8-4.5c-2.4-1.1-4.7-1.6-6.9-1.6c-1.1,0-2.3,0.1-3.4,0.3c-1.2,0.2-2.2,0.6-3.2,1.2
		c-0.9,0.6-1.7,1.3-2.3,2.2c-0.6,0.9-1,2.1-1,3.5c0,1.2,0.2,2.2,0.8,3c0.5,0.8,1.2,1.5,2.2,2.1c1,0.6,2.1,1.1,3.4,1.6
		c1.3,0.5,2.8,1,4.5,1.5c2.4,0.8,4.9,1.7,7.5,2.6c2.6,1,5,2.2,7.1,3.9c2.1,1.6,3.9,3.6,5.3,6c1.4,2.4,2.1,5.3,2.1,8.9
		c0,4.1-0.8,7.6-2.2,10.5c-1.5,3-3.5,5.4-6,7.4c-2.5,1.9-5.4,3.4-8.7,4.3c-3.3,0.9-6.6,1.4-10.1,1.4c-5.1,0-10-0.9-14.7-2.6
		c-4.7-1.8-8.7-4.3-11.8-7.5l11.2-11.4c1.7,2.1,4,3.9,6.8,5.3c2.8,1.4,5.7,2.2,8.5,2.2c1.3,0,2.5-0.1,3.7-0.4
		c1.2-0.3,2.2-0.7,3.1-1.3c0.9-0.6,1.6-1.4,2.2-2.4c0.5-1,0.8-2.2,0.8-3.6c0-1.3-0.3-2.5-1-3.4c-0.7-0.9-1.6-1.8-2.8-2.6
		c-1.2-0.8-2.8-1.5-4.6-2.1c-1.8-0.6-3.9-1.3-6.2-2.1c-2.3-0.7-4.5-1.6-6.6-2.6c-2.2-1-4.1-2.3-5.8-3.8c-1.7-1.6-3.1-3.5-4.1-5.7
		c-1-2.2-1.5-5-1.5-8.1c0-3.9,0.8-7.3,2.4-10.1c1.6-2.8,3.7-5.1,6.3-6.9c2.6-1.8,5.5-3.1,8.8-4c3.3-0.8,6.6-1.2,9.9-1.2
		c4,0,8.1,0.7,12.2,2.2c4.2,1.5,7.8,3.6,10.9,6.5L-340.6-68.8z"/>
</g>
<g>
	<rect x="-838.5" y="83.5" width="333.5" height="309.2"/>
	<g>
		<path class="st2" d="M-763.9,114.9V245c0,11.1-0.5,20.8-1.4,29.3c-0.9,8.4-2.8,15.9-5.6,22.4c-1.5,3.4-3.5,6.8-5.8,10.2
			c-2.3,3.4-5.2,6.6-8.7,9.9s-7.6,6.4-12.2,9.5c-4.7,3.1-10.2,6.2-16.4,9.3l-14.4-19.9c4.6-4,8.6-7.8,12.2-11.2
			c3.6-3.4,6.6-7.2,9.1-11.5c2.4-4.3,4.2-9.4,5.5-15.3c1.2-5.9,1.9-13.4,1.9-22.4V114.9H-763.9z"/>
		<path class="st2" d="M-633.7,178.8c9,0,17.1,1.2,24.2,3.7s13.1,6,18,10.8c4.9,4.7,8.6,10.6,11.2,17.5c2.6,7,3.9,15,3.9,24
			c0,9.8-1.6,18.4-4.8,25.7c-3.2,7.3-7.7,13.5-13.7,18.4c-5.9,4.9-13.1,8.6-21.5,11.1c-8.4,2.5-17.8,3.7-28.2,3.7
			c-4.8,0-9.3-0.1-13.6-0.5c-4.3-0.3-8-0.6-11.3-1v71.9h-36V178.8H-633.7z M-669.6,267.6c2.8,0.4,5.5,0.8,8.2,1
			c2.7,0.2,5.4,0.3,7.9,0.3c6.6,0,12.4-0.6,17.5-1.7c5-1.1,9.2-3,12.6-5.5c3.4-2.6,6-5.9,7.7-10.1c1.7-4.1,2.6-9.2,2.6-15.3
			c0-6-0.6-11.1-1.9-15.3c-1.3-4.2-3.4-7.5-6.2-10.1s-6.5-4.4-11-5.6c-4.5-1.2-9.9-1.7-16.2-1.7h-21.1V267.6z"/>
		<rect x="-763.8" y="114.9" class="st1" width="58" height="249.2"/>
		<g>
			<path d="M-719.9,326.1l-5.9,2.3V340l5.9,2.2v7.8l-29.8-12.5v-7l29.8-12.4V326.1z M-741.8,334.1l10.2,3.8v-7.5L-741.8,334.1z"/>
			<path d="M-726.3,292c1.5,0.6,2.7,1.5,3.8,2.6c1.1,1.1,1.9,2.5,2.5,4.1c0.6,1.6,0.9,3.3,0.9,5.3c0,2-0.3,3.7-0.9,5.3
				c-0.6,1.6-1.4,2.9-2.5,4c-1.1,1.1-2.3,1.9-3.8,2.5c-1.5,0.6-3.1,0.9-4.9,0.9h-18.6v-7.2h18c0.8,0,1.6-0.1,2.3-0.3
				c0.7-0.2,1.4-0.5,2-1c0.6-0.4,1-1,1.4-1.7c0.3-0.7,0.5-1.6,0.5-2.6c0-1-0.2-1.9-0.5-2.6c-0.3-0.7-0.8-1.3-1.4-1.7
				c-0.6-0.4-1.2-0.8-2-1c-0.7-0.2-1.5-0.3-2.3-0.3h-18v-7.2h18.6C-729.4,291.1-727.7,291.4-726.3,292z"/>
			<path d="M-720.5,264c0.9,1.9,1.3,4.2,1.3,6.7c0,2.3-0.4,4.4-1.1,6.4c-0.8,2-1.8,3.6-3.2,5.1c-1.4,1.4-3.1,2.6-5,3.4
				c-1.9,0.8-4.1,1.2-6.4,1.2c-2.4,0-4.5-0.4-6.5-1.2c-1.9-0.8-3.6-2-4.9-3.4c-1.4-1.5-2.4-3.2-3.1-5.1c-0.7-2-1.1-4.1-1.1-6.4
				c0-2.1,0.4-4.2,1.1-6.2c0.7-2,1.8-3.7,3.3-4.9l4.9,4.9c-0.9,0.7-1.6,1.6-2.1,2.7c-0.4,1.1-0.7,2.2-0.7,3.4c0,1.3,0.2,2.4,0.7,3.5
				c0.5,1.1,1.1,2,1.9,2.7c0.8,0.8,1.8,1.3,2.9,1.8c1.1,0.4,2.3,0.6,3.6,0.6c1.3,0,2.6-0.2,3.7-0.6c1.1-0.4,2.1-1,2.9-1.7
				c0.8-0.7,1.4-1.6,1.9-2.7c0.4-1,0.7-2.2,0.7-3.4c0-1.4-0.3-2.7-0.8-3.7c-0.6-1.1-1.3-1.9-2.2-2.6l4.7-5
				C-722.5,260.4-721.3,262-720.5,264z"/>
			<path d="M-743.6,243.5h23.7v7.2h-23.7v8.4h-6.1v-24h6.1V243.5z"/>
			<path d="M-719.9,231.8h-29.8v-7.2h29.8V231.8z"/>
			<path d="M-735,187.3c2.4,0,4.5,0.4,6.5,1.2c2,0.8,3.6,1.9,5,3.4c1.4,1.4,2.5,3.2,3.2,5.2c0.8,2,1.1,4.2,1.1,6.5
				c0,2.3-0.4,4.5-1.1,6.5c-0.8,2-1.8,3.7-3.2,5.1c-1.4,1.4-3.1,2.6-5,3.4c-2,0.8-4.1,1.2-6.5,1.2c-2.4,0-4.5-0.4-6.5-1.2
				c-1.9-0.8-3.6-1.9-4.9-3.4c-1.3-1.4-2.4-3.2-3.1-5.1c-0.7-2-1.1-4.1-1.1-6.5c0-2.3,0.4-4.5,1.1-6.5c0.7-2,1.8-3.7,3.1-5.2
				c1.3-1.4,3-2.6,4.9-3.4C-739.5,187.7-737.4,187.3-735,187.3z M-735,195c-1.3,0-2.5,0.2-3.6,0.6c-1.1,0.4-2.1,1-2.9,1.7
				c-0.8,0.7-1.4,1.6-1.9,2.7s-0.7,2.2-0.7,3.5c0,1.3,0.2,2.4,0.7,3.5c0.5,1,1.1,1.9,1.9,2.7c0.8,0.8,1.8,1.3,2.9,1.7
				c1.1,0.4,2.3,0.6,3.6,0.6c1.3,0,2.6-0.2,3.7-0.6c1.1-0.4,2.1-1,2.9-1.7c0.8-0.7,1.5-1.6,1.9-2.7c0.5-1,0.7-2.2,0.7-3.5
				c0-1.3-0.2-2.4-0.7-3.5c-0.5-1-1.1-1.9-1.9-2.7c-0.8-0.8-1.8-1.3-2.9-1.8C-732.4,195.2-733.6,195-735,195z"/>
			<path d="M-719.9,163.6l-19.5,12v0.1l19.5-0.2v7h-29.8v-8.2l19.5-12v-0.1l-19.5,0.2v-7h29.8V163.6z"/>
			<path d="M-742,133.5c-0.8,0.6-1.4,1.4-1.9,2.4c-0.5,1-0.7,2-0.7,2.9c0,0.5,0,1,0.1,1.5c0.1,0.5,0.2,0.9,0.5,1.3
				c0.2,0.4,0.5,0.7,0.9,1c0.4,0.3,0.9,0.4,1.5,0.4c0.5,0,0.9-0.1,1.3-0.3c0.3-0.2,0.6-0.5,0.9-0.9c0.3-0.4,0.5-0.9,0.7-1.5
				c0.2-0.6,0.4-1.2,0.7-1.9c0.3-1,0.7-2.1,1.1-3.2c0.4-1.1,0.9-2.1,1.6-3c0.7-0.9,1.5-1.6,2.5-2.2c1-0.6,2.2-0.9,3.7-0.9
				c1.7,0,3.2,0.3,4.4,0.9c1.2,0.6,2.3,1.5,3.1,2.5c0.8,1.1,1.4,2.3,1.8,3.7c0.4,1.4,0.6,2.8,0.6,4.3c0,2.1-0.4,4.2-1.1,6.2
				c-0.7,2-1.8,3.7-3.2,5l-4.8-4.7c0.9-0.7,1.6-1.7,2.3-2.9c0.6-1.2,0.9-2.4,0.9-3.6c0-0.5-0.1-1.1-0.2-1.6
				c-0.1-0.5-0.3-0.9-0.5-1.3c-0.3-0.4-0.6-0.7-1-0.9c-0.4-0.2-0.9-0.3-1.5-0.3c-0.6,0-1,0.1-1.4,0.4c-0.4,0.3-0.8,0.7-1.1,1.2
				c-0.3,0.5-0.6,1.2-0.9,1.9c-0.3,0.8-0.6,1.6-0.9,2.6c-0.3,1-0.7,1.9-1.1,2.8c-0.4,0.9-1,1.7-1.6,2.4c-0.7,0.7-1.5,1.3-2.4,1.7
				c-0.9,0.4-2.1,0.7-3.4,0.7c-1.7,0-3.1-0.3-4.3-1c-1.2-0.7-2.1-1.6-2.9-2.7c-0.8-1.1-1.3-2.3-1.7-3.7c-0.4-1.4-0.5-2.8-0.5-4.2
				c0-1.7,0.3-3.4,0.9-5.2c0.6-1.8,1.5-3.3,2.7-4.6L-742,133.5z"/>
		</g>
		<g>
			<path class="st1" d="M-664.8,169.1c-3,1.4-6.4,2-10.2,2c-3.5,0-6.8-0.6-9.8-1.7c-3-1.2-5.6-2.8-7.8-4.9s-3.9-4.7-5.2-7.6
				c-1.2-3-1.9-6.2-1.9-9.8c0-3.6,0.6-7,1.9-9.9c1.3-3,3-5.5,5.2-7.6c2.2-2.1,4.9-3.7,7.9-4.8c3-1.1,6.2-1.7,9.7-1.7
				c3.2,0,6.4,0.6,9.5,1.7c3.1,1.1,5.6,2.8,7.6,5l-7.5,7.5c-1-1.4-2.4-2.5-4.1-3.2c-1.7-0.7-3.4-1-5.2-1c-1.9,0-3.7,0.4-5.3,1.1
				s-3,1.7-4.2,2.9c-1.2,1.2-2.1,2.7-2.7,4.4c-0.6,1.7-1,3.6-1,5.6c0,2.1,0.3,4,1,5.7c0.6,1.7,1.5,3.2,2.7,4.4
				c1.1,1.2,2.5,2.2,4.1,2.9c1.6,0.7,3.3,1,5.2,1c2.2,0,4.1-0.4,5.7-1.3c1.6-0.9,2.9-2,3.9-3.3l7.7,7.2
				C-659.4,165.9-661.8,167.7-664.8,169.1z"/>
			<path class="st1" d="M-605.9,146.9c0,3.6-0.6,6.9-1.9,9.9c-1.2,3-3,5.5-5.2,7.7c-2.2,2.1-4.8,3.8-7.9,4.9c-3,1.2-6.4,1.7-9.9,1.7
				s-6.9-0.6-9.9-1.7c-3-1.2-5.6-2.8-7.9-4.9c-2.2-2.1-3.9-4.7-5.2-7.7c-1.2-3-1.9-6.3-1.9-9.9c0-3.6,0.6-6.9,1.9-9.9
				c1.2-2.9,3-5.4,5.2-7.5c2.2-2.1,4.8-3.6,7.9-4.8c3-1.1,6.3-1.7,9.9-1.7s6.9,0.6,9.9,1.7c3,1.1,5.7,2.7,7.9,4.8
				c2.2,2.1,3.9,4.6,5.2,7.5C-606.5,139.9-605.9,143.2-605.9,146.9z M-617.7,146.9c0-2-0.3-3.8-1-5.5c-0.6-1.7-1.5-3.2-2.7-4.4
				c-1.1-1.2-2.5-2.2-4.1-2.9c-1.6-0.7-3.4-1.1-5.3-1.1c-1.9,0-3.7,0.4-5.3,1.1c-1.6,0.7-3,1.7-4.1,2.9s-2.1,2.7-2.7,4.4
				c-0.6,1.7-0.9,3.6-0.9,5.5c0,2.1,0.3,4,1,5.7c0.6,1.7,1.5,3.2,2.7,4.5c1.1,1.2,2.5,2.2,4.1,2.9c1.6,0.7,3.3,1.1,5.3,1.1
				c1.9,0,3.7-0.4,5.3-1.1c1.6-0.7,3-1.7,4.1-2.9c1.2-1.2,2.1-2.7,2.7-4.5C-618,150.9-617.7,149-617.7,146.9z"/>
			<path class="st1" d="M-590.2,164.2c0,1.8-0.6,3.3-1.9,4.5c-1.3,1.2-2.8,1.8-4.5,1.8c-0.9,0-1.8-0.2-2.5-0.5
				c-0.8-0.3-1.5-0.8-2.1-1.3c-0.6-0.6-1.1-1.2-1.4-2c-0.3-0.8-0.5-1.6-0.5-2.5c0-0.9,0.2-1.7,0.5-2.4c0.3-0.8,0.8-1.4,1.4-2
				s1.3-1,2.1-1.4c0.8-0.3,1.6-0.5,2.5-0.5c1.8,0,3.3,0.6,4.5,1.8C-590.9,160.9-590.2,162.4-590.2,164.2z"/>
		</g>
	</g>
	<g class="st3">
		<path class="st4" d="M-613.2,330.1c0,0.2,0,0.2-0.1,0.3c-0.2,0.6-0.1,0.9,0.5,0.9c0.9,0,1.9,0.1,2.7-0.5c0.3-0.2,0.8-0.3,1.2-0.3
			c0.6,0,1.3,0,1.9,0c0.9,0,1.8-0.3,2.6-0.7c0.2-0.1,0.5-0.3,0.8-0.3c0.7-0.1,1.4-0.5,2-0.9c0.6-0.4,1.2-0.5,1.9-0.4
			c0.5,0.1,0.9,0.2,1.4,0.3c1,0.2,1.8-0.1,2.4-0.9c0.2-0.3,0.4-0.6,0.7-0.9c0.3-0.3,0.6-0.3,0.9-0.2c0.3,0.1,0.4,0.4,0.4,0.7
			c0,0.3-0.1,0.6-0.1,0.9c0,0.5,0.1,1,0.4,1.4c0.2,0.3,0.5,0.3,0.8-0.1c0.1-0.2,0.2-0.5,0.4-0.7c0.3-0.3,0.6-0.3,0.9,0.1
			c0.5,0.7,0.6,0.7,1.4,0.4c0.7-0.2,1.3-0.5,1.7-1.3c0.1-0.2,0.3-0.3,0.5-0.5c0.1-0.1,0.3-0.1,0.4-0.1c1.2-0.5,1.5-1.5,0.8-2.6
			c-0.2-0.3-0.5-0.6-0.7-0.9c-0.5-0.7-0.4-1.1,0.1-1.7c0.4-0.5,0.8-1.1,1.1-1.6c0.6-0.9,1.3-1.7,1.9-2.6c0.7-0.9,1.3-1.9,1.9-2.9
			c0.2-0.3,0.4-0.7,0.4-1.1c0.2-1.5,0.2-3-0.5-4.4c-0.1-0.2-0.2-0.4-0.3-0.7c0-0.3-0.1-0.8,0.1-1c0.5-0.6,1-1.2,1.6-1.7
			c0.2-0.2,0.6-0.3,0.9-0.3c0.6-0.1,1.1-0.3,1.5-0.9c0.3-0.5,0.8-0.7,1.3-0.7c0.5,0,0.8,0.3,0.8,0.8c0,0.3-0.1,0.7-0.2,0.9
			c-0.5,0.9-1.1,1.7-2.1,2.2c-0.3,0.1-0.5,0.3-0.7,0.6c-0.3,0.4-0.2,0.7,0.2,0.9c0.1,0,0.2,0.1,0.3,0.1c0.4,0.2,0.5,0.3,0.2,0.7
			c-0.2,0.4-0.2,0.8,0,1.1c0.3,0.4,0.5,0.9,0.9,1.2c0.8,0.7,2.1,0.1,2.2-0.8c0.1-0.7,1-1.5,1.7-1.5c1.4,0,2.5-0.7,3.6-1.5
			c1-0.7,1.9-1.4,2.9-2.1c0.9-0.7,1.5-1.5,1.9-2.6c0.3-0.7,0.6-1.4,0.9-2.1c0.1-0.3,0.3-0.6,0.4-0.9c0.3-1.5,1.3-2.6,2.6-3.4
			c1.8-1.2,2.7-2.8,2.7-5c0-0.8,0-1.6,0.5-2.3c0.1-0.2,0.2-0.5,0.2-0.8c0-0.7,0.3-1.2,0.6-1.8c0.4-0.7,0.7-1.4,1-2.1
			c0.2-0.5,0.2-1,0.2-1.5c0-0.6,0-1.2,0.3-1.8c0.2-0.3,0.3-0.8,0.3-1.2c0-1.3,0-2.7,0-4c0-0.3-0.1-0.6-0.3-0.8
			c-0.3-0.4-0.5-0.8-0.4-1.4c0-0.4,0-0.7,0-1.1c0-0.3,0-0.5-0.4-0.8c-0.1,0.3-0.1,0.6-0.2,0.8c-0.1,0.4-0.3,0.8-0.5,1.2
			c-0.2,0.3-0.5,0.4-0.9,0.4c-0.7,0-1.2-0.6-0.9-1.3c0.2-0.4,0.5-0.8,0.8-1c0.8-0.7,1.2-1.5,1.3-2.5c0-0.3,0-0.6,0-0.9
			c0.1-0.8-0.2-1.3-0.7-1.9c-0.5-0.5-0.9-1.1-1.3-1.7c-0.2-0.3-0.1-0.5,0.1-0.7c0.2-0.2,0.5-0.3,0.8-0.4c1.4-0.6,2.2-1.7,2.2-3.3
			c0-0.7,0-1.3,0-2c0-0.3,0.1-0.7,0.1-1c0.1-0.4,0.3-0.6,0.8-0.6c0.3,0,0.6-0.2,0.8-0.2c0.5-0.2,0.9-0.1,1.1,0.4
			c0.2,0.4,0.3,0.8,0.3,1.2c0,0.3,0,0.6,0,0.9c0,0.8,0.4,1.3,1,1.7c0.4,0.3,0.7,0.2,1-0.2c0.1-0.2,0.2-0.4,0.3-0.6
			c0.3-0.6,0.8-0.7,1.4-0.3c0.1,0.1,0.2,0.1,0.2,0.2c0.5,0.4,0.7,0.4,1.1-0.2c0.1-0.2,0.2-0.5,0.2-0.7c0-0.8,0-1.7-0.1-2.5
			c0-0.1,0-0.2-0.1-0.4c-0.1-0.3-0.4-0.5-0.7-0.3c-0.3,0.2-0.6,0.5-0.8,0.7c-0.6,0.6-1.4,0.9-2.3,0.7c-0.5-0.2-0.6-0.3-0.5-0.9
			c0.1-0.2,0.2-0.5,0.3-0.7c0.3-0.5,0.6-1.1,0.5-1.7c0-0.4,0.2-0.7,0.6-0.8c0.4-0.2,0.8-0.1,1.1,0.2c0.1,0.1,0.2,0.2,0.3,0.3
			c0.5,0.4,1.1,0.5,1.6,0.2c0.3-0.1,0.5-0.3,0.7-0.4c0.4,0.1,0.4,0.4,0.4,0.7c0,0.5,0,1.1,0.1,1.6c0,0.5,0.1,0.9,0.4,1.3
			c0.2,0.3,0.2,0.7,0.2,1.1c0,0.5,0,1.1-0.1,1.6c-0.1,0.9,0.3,1.7,1,2.4c1.1,1.2,2.2,2.5,3.2,3.8c0.4,0.4,0.6,1,0.9,1.4
			c0.5,0.7,1,1.3,1.5,2c0.2,0.3,0.5,0.6,0.7,1c0.4,1.1,0.8,2.1,1.1,3.2c0.1,0.5,0.1,1.1,0,1.7c-0.2,1.2-0.5,2.4-0.7,3.6
			c-0.1,0.8-0.5,1.4-1,1.9c-1.8,2-2.1,4.5-0.6,6.8c0.1,0.2,0.2,0.3,0.2,0.5c0.1,0.4-0.1,0.6-0.5,0.5c-0.2,0-0.4-0.1-0.6-0.2
			c-0.7-0.3-1.3-0.3-1.9,0.2c-0.5,0.4-1.1,0.8-1.6,1.3c-0.4,0.4-0.7,0.9-0.6,1.5c0,0.8,0.1,1.5,0.2,2.3c0.1,0.6,0.4,1.2,0.7,1.7
			c0.8,1.1,1.3,2.3,1.4,3.6c0,0.4,0.1,0.7,0.2,1.1c0.3,1.2,0.3,2.4,0,3.6c-0.1,0.4-0.3,0.8-0.5,1.2c-0.2,0.4-0.4,0.9-0.6,1.3
			c-0.3,0.6-0.5,1.3-0.8,1.9c-0.4,0.9-0.6,1.8-0.6,2.8c0,0.6,0,1.2,0,1.8c0,1.4,0.5,2.7,1.5,3.7c0.4,0.5,0.9,0.9,1.3,1.4
			c0.5,0.6,0.5,0.9-0.2,1.3c-0.5,0.3-0.9,0.5-1.4,0.8c-0.7,0.3-1.1,0.9-1.1,1.7c0,1-0.1,2,0,3.1c0,0.9-0.2,1.5-1.1,1.9
			c-0.6,0.3-1.1,0.7-1.5,1.1c-0.2,0.2-0.4,0.6-0.5,0.9c-0.2,0.5-0.4,0.8-0.9,1c-0.6,0.2-0.9,0-1-0.6c-0.1-0.5-0.2-1-0.3-1.6
			c-0.1-0.5-0.1-1-0.1-1.5c0-0.5,0-0.9,0-1.4c0-0.6,0.2-1.1,0.7-1.4c0.4-0.3,0.8-0.8,1.2-1.2c0.5-0.6,0.2-1.2-0.5-1.3
			c-0.3,0-0.7,0-1,0.1c-0.5,0.1-0.9,0.3-1.4,0.5c-0.5,0.2-0.7,0.6-0.7,1.1c-0.1,0.8,0.1,1.5,0.6,2.1c0.2,0.2,0.3,0.5,0.4,0.8
			c0.2,0.5,0.1,0.9-0.3,1.3c-0.4,0.4-0.9,0.3-1.1-0.3c-0.3-0.9-0.4-0.9-1.3-0.9c-0.3,0-0.6,0-0.9,0.1c-1.3,0.1-2.1,1.4-1.8,2.6
			c0.1,0.2,0.2,0.4,0.3,0.6c0.3,0.3,0.4,0.7,0.4,1.1c0,0.4,0,0.8,0,1.2c0,0.4-0.1,0.7-0.4,1c-0.3,0.2-0.5,0.5-0.8,0.7
			c-0.4,0.3-0.7,0.6-0.8,1.2c-0.1,0.5-0.5,0.6-0.9,0.2c-0.4-0.5-0.6-1-0.6-1.6c0-0.6,0-1.2,0-1.8c0-0.2,0-0.3,0-0.5
			c-0.1-0.9-0.5-1.2-1.3-0.8c-0.6,0.2-1.1,0.6-1.7,0.9c-0.4,0.2-0.6,0.6-0.6,1.1c0,0.8-0.3,1.5-0.8,2c-0.3,0.3-0.4,0.8-0.4,1.2
			c-0.1,0.9-0.2,0.9-1.1,1c-1.2,0.1-2.3,0.1-3.5,0.1c-1.9-0.1-3.7,0.4-5.4,0.9c-0.4,0.1-0.9,0.3-1.3,0.4c0-0.1-0.1-0.1-0.1-0.2
			c0.3-0.2,0.5-0.4,0.8-0.6c0.3-0.2,0.5-0.3,0.8-0.6c0.1-0.1,0.3-0.4,0.2-0.6c-0.1-0.1-0.3-0.3-0.5-0.3c-0.5,0-0.9,0.1-1.4,0.2
			c-0.2,0-0.3,0.1-0.5,0.2c-0.9,0.4-1.1,0.3-1.5-0.5c-0.2-0.4-0.2-0.8-0.2-1.3c0-0.3,0-0.6-0.1-1c-0.9,0.1-1.7,0.4-2.2,1.1
			c-0.4,0.5-0.6,1.1-0.9,1.6c-0.3,0.5-0.2,0.8,0.3,1.1c0.8,0.5,1.7,1,2.5,1.6c0.4,0.3,0.8,0.5,1.2,0.9c0.4,0.3,0.7,0.7,0.5,1.3
			c-0.2,0.5-0.7,0.8-1.3,0.9c-1.3,0.1-2.6,0.6-3.7,1.2c-0.5,0.3-0.8,0.7-0.8,1.3c0.1,0.8-0.3,1.4-0.9,1.9c-0.4,0.3-0.7,0.6-1,0.8
			c-0.4,0.3-0.6,0.6-0.6,1.1c0,0.6,0,1.2,0,1.8c0,0.5-0.2,0.9-0.7,1.1c-0.4,0.2-0.7,0.5-1,0.8c-0.4,0.4-0.8,0.6-1.3,0.3
			c-0.4-0.2-0.8-0.4-1.2-0.5c-0.4-0.2-0.7-0.4-1.1-0.5c-0.5-0.2-1-0.4-1.3-0.9c-0.3-0.4-0.7-0.8-0.9-1.3c-0.1-0.3-0.4-0.5-0.7-0.6
			c-0.7-0.4-1-0.8-0.9-1.5c0.1-0.8,0-1.5-0.1-2.3c-0.2-0.8-0.1-1.1,0.7-1.5c0.8-0.5,1.3-1.2,1.8-2c0.3-0.5,0.3-1,0.1-1.6
			c-0.1-0.4-0.4-0.6-0.8-0.5c-1.2,0.4-2.4,0.1-3.7,0c-1.3-0.1-2.6-0.5-3.9-0.5c-0.3,0-0.7,0-1,0c-0.5,0-0.8,0.2-1.2,0.5
			c-0.6,0.5-1.3,1-1.9,1.4c-0.4,0.3-0.8,0.6-1.1,1c-0.4,0.7-1.2,0.9-1.9,0.4c-0.5-0.4-0.6-0.3-1.1,0c-0.2,0.1-0.5,0.2-0.7,0.2
			c-0.9,0-1.1,0.1-1.4,0.8c-0.1,0.3-0.4,0.5-0.7,0.3c-1-0.5-1.7-0.1-2.3,0.6c-0.4,0.4-0.9,0.7-1.4,0.8c-1,0.1-1.9,0.4-2.6,1.2
			c-0.6,0.7-1.5,0.4-1.8-0.3c-0.3-0.6-0.9-0.9-1.6-0.9c-0.7,0-1.4,0.6-1.1,1.4c0.2,0.6,0,1.2-0.3,1.7c-0.4,0.6-0.5,1.2-0.6,1.9
			c0,0.4-0.1,0.7-0.1,1.2c-0.6-0.3-1.1-0.5-1.5-1c-1.1-1.2-2.5-1.6-4-1.4c-0.3,0-0.7,0.2-1,0.4c-0.5,0.3-0.9,0.7-1.4,1
			c-0.5,0.4-1,0.3-1.3-0.3c-0.1-0.1-0.1-0.2-0.2-0.3c-0.3-0.5-0.3-0.5-0.9-0.5c-0.2,0-0.3-0.1-0.5-0.1c-0.2-0.1-0.3-0.3-0.5-0.3
			c-0.4-0.1-0.5-0.3-0.4-0.7c0.1-0.5,0.1-1,0.1-1.5c0.1-0.9,0.3-1.2,1.2-1.1c0.4,0,0.8,0,1.2-0.2c0.2-0.1,0.5-0.2,0.7-0.2
			c0.8-0.1,1.3-0.5,1.6-1.2c0.2-0.4,0.5-0.9,0.9-1.3c0.3-0.3,0.7-0.5,1.2-0.5c0.4,0,0.8-0.1,1.1-0.5c0.3-0.3,0.5-0.6,0.8-0.9
			c0.6-0.6,1.1-1.3,1.7-1.9c0.2-0.2,0.4-0.4,0.5-0.6c0.9-1.3,2.1-2.4,3.3-3.4c0.6-0.6,1.2-1.2,1.6-2c0.3-0.5,0.8-0.9,1.3-1.3
			c0.5-0.4,1-0.8,1.6-1.2C-614.4,329.9-613.8,329.9-613.2,330.1z"/>
		<path class="st4" d="M-549.2,222c0.1-0.2,0.2-0.3,0.2-0.4c0.4-0.3,0.4-0.7,0.4-1.1c0-0.8,0-1.6,0-2.3c0-0.4,0.2-0.8,0.3-1.2
			c0.1-0.3,0.2-0.6,0.2-0.8c-0.1-0.8-0.3-1.6-1-2.1c-0.7-0.6-1.1-1.4-1.6-2.1c-0.5-0.7-0.3-1.8,0.4-2.4c0,0,0,0,0.1,0
			c0.7-0.4,1-0.9,0.9-1.7c-0.1-0.4,0-0.8,0.4-1.1c0.5-0.2,0.9-0.1,1.3,0.2c0.2,0.1,0.4,0.3,0.5,0.5c1.5,1.6,3,3.2,4.4,4.8
			c0.2,0.2,0.5,0.4,0.7,0.7c0.9,0.8,1.8,1.7,2.6,2.5c0.4,0.3,0.8,0.6,1.1,0.9c0.6,0.4,1.2,0.9,1.7,1.3c0.7,0.6,1.4,1.2,2.4,1.3
			c0.3,0.1,0.7,0.3,1,0.5c1.2,1,2.6,1.5,4.2,1.6c1.3,0.1,2.7,0.3,4,0.4c0.4,0,0.8,0,1.2,0c0.1,0,0.3,0,0.4-0.1
			c0.6-0.5,1.3-0.9,1.8-1.4c0.2-0.2,0.4-0.5,0.5-0.8c0.2-0.6,0.5-1.1,0.9-1.5c0.4-0.4,0.8-0.8,1.4-1.3c0,1.2,0.1,2.2-0.7,3
			c-0.8,0.8-0.9,1.8-0.8,2.9c0.2,1,0.3,2,1,2.9c0.5,0.6,0.8,1.2,1.2,1.9c0.2,0.2,0.3,0.5,0.5,0.7c0.5,0.5,1.1,0.7,1.8,0.4
			c0.5-0.2,1.1-0.4,1.6-0.6c-0.5,0.7-1.1,1.4-1.6,2.1c-0.3,0.4-0.7,0.7-1.2,0.9c-0.9,0.3-1.7,0.8-2.3,1.5c-0.1,0.1-0.2,0.2-0.4,0.3
			c-0.4,0.3-0.6,0.3-1,0c-0.1-0.1-0.3-0.3-0.4-0.4c-0.2-0.1-0.5-0.2-0.7-0.1c-0.2,0.1-0.3,0.4-0.3,0.6c0,0.2,0.1,0.4,0.2,0.6
			c0.1,0.2,0.2,0.4,0.4,0.6c-0.8,0.2-1.4,0.2-2.1,0c-0.3-0.1-0.6-0.2-1-0.3c-0.9-0.3-1.6-0.1-2.2,0.6c-0.2,0.3-0.5,0.5-0.7,0.7
			c-0.8,0.9-1.6,1.7-2.4,2.6c0,0,0,0,0,0.1c-0.8,0.6-1.1,1.6-1.7,2.3c-0.4,0.6-0.6,1.3-0.7,2c-0.1,1.2-0.1,2.5-0.2,3.7
			c0,0.3-0.1,0.7-0.1,1.1c-0.2-0.1-0.4-0.1-0.5-0.1c-1.1-0.7-2.4-1-3.7-1.2c-1.3-0.2-2.4-0.8-3.4-1.5c-1.3-1-2.5-1.9-3.8-2.8
			c-0.2-0.2-0.6-0.3-0.9-0.3c-1.6-0.2-3.1,0.1-4.5,0.5c-0.3,0.1-0.5,0.3-0.7,0.6c-0.7,0.8-1.4,1.6-2.1,2.4c-0.1,0.1-0.2,0.2-0.4,0.4
			c-0.1-0.3-0.2-0.5-0.3-0.7c-0.2-0.5-0.5-1-0.7-1.4c-0.2-0.4-0.6-0.6-1-0.7c-1.2-0.2-2.3,0.1-3.1,1c-0.7,0.8-0.4,2.9,0.6,3.5
			c0.5,0.3,1.2,0.5,1.8,0.5c0.5,0,1,0,1.5,0c0.5,0,0.6,0.1,0.7,0.7c0,0.1,0,0.2,0,0.4c0,0.3,0.1,0.5,0.4,0.7
			c0.8,0.3,1.5,0.6,2.3,0.8c0.6,0.2,0.7,0.4,0.3,0.9c-0.3,0.4-0.6,0.7-0.9,1c-0.1,0.1-0.3,0.3-0.4,0.3c-0.8,0-1.7,0-2.3-0.6
			c-0.6-0.6-0.7-0.6-1.2,0c-0.2,0.3-0.5,0.6-0.7,0.8c-0.4,0.5-0.6,1.1-0.5,1.8c0.1,0.7,0,1.5-0.6,2c-0.2,0.2-0.5,0.3-0.8,0.2
			c-0.3-0.1-0.6-0.2-0.9-0.3c-0.8-0.3-1.2-0.9-1.4-1.7c-0.2-0.8,0-1.5,0.7-1.9c0.5-0.3,0.6-0.8,0.6-1.4c0-1.2-0.8-1.9-1.6-2.6
			c-0.6-0.5-1.2-0.9-1.8-1.3c-0.2-0.1-0.4-0.4-0.4-0.7c0-0.9-0.2-1.8,0-2.6c0.2-1,0.7-1.9,1.6-2.4c1.1-0.6,2.1-1.3,2.9-2.2
			c0.3-0.4,0.5-0.8,0.7-1.2c0.2-0.6,0.1-1.1-0.4-1.4c-0.4-0.3-0.7-0.7-0.8-1.2c-0.1-0.7,0.1-1.2,0.8-1.5c0.7-0.3,1.3-0.3,2-0.1
			c0.2,0.1,0.4,0.2,0.5,0.4c0.2,0.3,0.5,0.3,0.8,0.3c0.8,0,1.7,0,2.5,0c1.2-0.1,1.9-0.9,2-2c0-0.8,0-1.6,0.1-2.4
			c0-0.3,0-0.6-0.4-0.7c-0.3-0.1-0.3-0.4-0.2-0.6c0.1-0.5,0.4-0.9,0.8-1.2c0.7-0.5,1-1.1,0.9-1.9c0-0.5,0-1,0-1.5
			C-548.5,222.8-548.5,222.3-549.2,222z"/>
		<path class="st4" d="M-633,349.6c0.3,0.7,0.6,1.3,0.9,1.9c0.4,0.8,1,1.5,1.8,1.9c0.9,0.5,1.8,0.6,2.7-0.2c0.5-0.5,1.1-0.4,1.7,0
			c0.5,0.4,0.7,1,0.5,1.6c-0.1,0.2-0.3,0.5-0.4,0.7c-0.1,0.2-0.3,0.5-0.4,0.7c-0.1,0.4,0.1,0.8,0.5,0.9c0,0,0.1,0,0.1,0
			c1-0.1,1.5,0.4,1.9,1.2c0.3,0.6,0.7,1.2,1.1,1.8c0.4,0.7,0.5,1.3-0.1,2c-0.4,0.4-0.5,0.9-0.7,1.4c-0.1,0.4-0.4,0.9-0.7,1.2
			c-0.9,0.8-1.3,1.9-1.3,3.1c0,0.8-0.2,1.5-0.6,2.2c-0.3,0.5-0.4,1.1-0.5,1.7c-0.1,1.3,0,2.5-0.1,3.8c0,0.8-0.1,1.7-0.2,2.5
			c0,0.3-0.2,0.7-0.4,0.9c-0.3,0.5-0.9,0.5-1.2,0c-0.1-0.1-0.2-0.2-0.3-0.4c-0.4-0.5-0.9-0.4-1.1,0.2c-0.1,0.3-0.1,0.6-0.2,0.8
			c-0.1,0.3-0.1,0.7-0.1,1c0,0.4-0.3,0.7-0.6,0.9c-0.5,0.4-1.1,0.8-1.6,1.1c-0.3,0.2-0.7,0.3-1.1,0.4c-0.3,0.1-0.6,0.1-0.7-0.2
			c-0.1-0.2,0-0.5,0.1-0.7c0.2-0.3,0.4-0.5,0.6-0.7c0.9-1,0.9-1.9-0.2-2.6c-0.6-0.4-0.7-0.9-0.7-1.5c0-0.6,0.1-0.6,0.7-0.7
			c0.2,0,0.3-0.2,0.5-0.2c-0.2-0.4-0.6-0.3-0.8-0.2c-0.6,0.4-1.2,0.8-1.7,1.3c-0.4,0.4-0.4,0.9-0.1,1.4c0.3,0.4,0.6,0.8,1,1.2
			c0.4,0.5,0.5,1,0.3,1.6c-0.2,0.4-0.4,0.6-0.8,0.6c-0.4,0-0.8-0.1-1.2-0.2c-0.5-0.1-0.9-0.2-1.4-0.2c-0.5,0-0.9-0.3-1.1-0.7
			c-0.2-0.5-0.2-1,0.1-1.5c0.1-0.1,0.2-0.2,0.3-0.3c0.7-0.7,0.8-1.5,0.5-2.3c-0.1-0.2-0.3-0.5-0.5-0.6c-0.6-0.4-0.9-0.9-1.1-1.6
			c-0.2-0.9-0.2-1.8,0.4-2.5c0.7-0.9,1.3-1.8,2.1-2.6c0.9-1,0.9-2.1,0.7-3.3c0-0.2-0.3-0.4-0.5-0.6c0.1-0.1,0.1-0.2,0.2-0.3
			c0.7-0.7,0.9-1.9,0.3-2.7c-0.6-0.9-1.2-1.9-1.8-2.7c-0.2-0.3-0.6-0.5-0.9-0.7c-0.5-0.2-1,0-1.1,0.5c-0.1,0.9-0.2,1.8-0.2,2.8
			c0,0.4,0.2,0.5,0.7,0.4c0.3-0.1,0.6-0.1,0.9-0.2c0.4,0,0.7,0.1,0.9,0.5c0.2,0.3,0.1,0.7-0.1,1c-0.3,0.4-0.6,0.8-1,1.1
			c-0.2,0.2-0.4,0.3-0.7,0.4c-0.3,0.1-0.5-0.1-0.5-0.4c0-0.2,0-0.5,0.1-0.7c0-0.3,0.1-0.7-0.3-0.9c-0.3-0.2-0.6,0-0.9,0.2
			c-0.4,0.4-0.8,0.7-1.3,1.1c-0.3,0.2-0.6,0.5-0.9,0.6c-0.2,0.1-0.5,0.1-0.7,0.2c0-0.2-0.1-0.3,0-0.3c0.4-0.9,0-1.6-0.6-2.1
			c-0.5-0.4-0.7-0.9-0.7-1.5c0-0.3-0.1-0.7,0.3-0.8c0.3-0.1,0.6,0.1,0.8,0.4c0.2,0.3,0.4,0.6,0.5,1c0.2,0.5,0.5,0.7,0.9,0.8
			c0.5,0.1,0.9-0.3,0.7-0.8c-0.3-0.8-0.8-1.5-1.8-1.7c-0.6-0.1-1.1-0.4-1.5-0.9c-0.2-0.2-0.4-0.4-0.6-0.6c-0.6-0.5-0.7-1-0.4-1.5
			c0.3-0.5,1-0.7,1.6-0.5c0.3,0.1,0.6,0.2,1.1,0.4c0-0.4,0.1-0.7,0.1-1c0-0.9,0.2-1.1,1.1-1.1c0.1,0,0.2,0,0.3,0c1.1,0,1.1,0,1.4-1
			c0.2-0.6,0.6-0.8,1.2-0.6c1.1,0.3,1.5,0,1.8-1.1c0.2-1.3,1.7-2.5,3-2.4c0.4,0,0.6-0.2,0.9-0.4C-633.7,350-633.4,349.8-633,349.6z"
			/>
		<path class="st4" d="M-619.5,361.8c0.2-0.4,0.4-0.8,0.6-1.2c0.3-0.5,0.5-1,0.6-1.6c0.1-0.4,0.3-0.7,0.4-1.1c0.2-0.3,0.3-0.6,0-0.9
			c-0.1-0.2-0.2-0.4-0.3-0.6c-0.5-0.9-1-1.2-2-1.1c-0.6,0-1.2,0-1.9-0.1c0.3-0.1,0.6-0.1,0.9-0.2c0.8-0.1,1.5-0.5,2.1-1.1
			c0.6-0.6,1.3-1.2,1.9-1.8c0.2-0.2,0.3-0.6,0.5-0.9c0.2-0.4,0.4-0.7,0.5-1.1c0.1-0.3,0.3-0.6,0.3-0.9c0.1-0.8,0.5-1.4,1.1-1.9
			c0.6-0.5,1-0.5,1.5,0.1c0.3,0.3,0.5,0.7,0.8,1c0.4,0.5,0.7,0.5,1.2,0.1c0.4-0.4,0.9-0.5,1.4-0.5c0.5,0,1-0.1,1.4-0.4
			c0.4-0.3,0.7-0.7,0.7-1.2c0-0.8,0.3-1.3,1-1.7c0.5-0.3,0.9-0.6,1.3-1c0.6-0.5,1.2-0.7,1.9-0.2c0.3,0.2,0.6,0.3,0.9,0
			c0.2-0.2,0.5-0.1,0.8,0c0.3,0.1,0.6,0.2,0.9,0.4c0.2,0.1,0.4,0.1,0.5,0.3c0.3,0.5,0.7,0.5,1.2,0.5c0.2,0,0.3,0,0.5,0
			c0.2,0,0.4,0.1,0.4,0.4c0,0.8,0.3,1.3,0.9,1.9c0.6,0.6,0.4,1.9-0.3,2.5c-0.6,0.5-1.2,1-1.7,1.5c-1.1,0.9-1.7,2.2-2.2,3.5
			c0,0.1-0.1,0.2-0.1,0.3c-0.3,0.9-0.5,1-1.2,0.4c-0.4-0.3-0.7-0.6-1.1-1c-0.9-0.9-2-1.3-3.2-1.1c-0.4,0.1-0.7,0.2-0.9,0.6
			c-0.3,0.5-0.7,0.8-1.3,1c-0.9,0.3-1.4,0.9-1.4,2c-0.1,1.1-0.8,1.9-1.5,2.7c-0.1,0.1-0.3,0.2-0.4,0.4c-0.6,0.6-0.6,0.8-0.2,1.5
			c0.3,0.6,0.2,0.9-0.5,0.8c-0.6,0-1.1,0.1-1.5,0.5c-0.6,0.5-0.9,0.4-1.3-0.2c-0.3-0.5-0.6-0.9-0.9-1.4c-0.5-0.6-0.9-0.6-1.4,0.1
			c-0.2,0.3-0.4,0.6-0.7,0.9C-619.4,361.9-619.4,361.9-619.5,361.8z"/>
		<path class="st4" d="M-568.3,300.3c-0.3-0.5-0.3-0.8-0.3-1.2c0.1-0.5,0.1-0.9-0.4-1.3c-0.4-0.3-0.4-0.7,0-1.1
			c0.3-0.3,0.4-0.6,0.5-1c0.1-0.5,0.3-0.9,0.5-1.4c0.2-0.4,0.6-0.6,1-0.4c0.4,0.2,0.5,0.6,0.3,1.1c-0.2,0.4-0.3,0.8-0.5,1.2
			c-0.2,0.6,0,0.8,0.6,0.9c0.4,0.1,0.5,0.2,0.4,0.6c0,0.1-0.1,0.3-0.2,0.4C-566.9,298.9-567.7,299.5-568.3,300.3z"/>
		<path class="st4" d="M-597.5,343c0.2-0.4,0.3-0.8,0.5-1.1c0.4-0.5,0.9-1,1.4-1.5c0.2-0.2,0.4-0.3,0.7-0.2c0.3,0.1,0.4,0.4,0.4,0.7
			c-0.1,0.5-0.2,0.9-0.5,1.3c-0.2,0.3-0.3,0.6-0.4,0.9c-0.1,0.9-0.4,1.2-1,1.2C-596.9,344.4-597.4,343.8-597.5,343z"/>
	</g>
</g>
<rect x="0" y="162.5" class="st1" width="330" height="69"/>
<path d="M-216.1,62.4c3-0.5,7.8-1.3,14.3-2.3c6.6-1,12.8-1.4,18.9-1.4c6.3,0,11.8,0.5,16.6,1.4c4.8,1,8.8,2.7,12.1,5.1
	c3.3,2.5,5.7,5.9,7.4,10.2c1.6,4.4,2.5,10.1,2.5,17.2v151.7c0,24.3-7,42.6-20.9,54.7c-13.9,12.2-34.4,18.2-61.5,18.2
	c-14.2,0-25.7-2.2-34.4-6.6c-6.3-3-10.9-7.1-13.7-12.3c-2.9-5.2-4.3-11.1-4.3-17.6c0-5.5,0.8-10.2,2.3-14.3c1.5-4.1,3.3-7.4,5.5-9.8
	c5.2,1.1,9.6,1.8,13.3,2.3c3.7,0.4,7.7,0.6,12.1,0.6c10.7,0,18.3-2.7,23-8c4.6-5.3,7-13.2,7-23.6V62.4z"/>
<g>
	<path d="M66.3,214l-2.6-6.7H50.5L48,214h-8.9l14.2-34h8l14.1,34H66.3z M57.2,189.1l-4.3,11.7h8.5L57.2,189.1z"/>
	<path d="M105.1,206.8c-0.7,1.7-1.7,3.1-2.9,4.3c-1.3,1.2-2.8,2.1-4.6,2.8c-1.8,0.7-3.8,1-6,1c-2.2,0-4.3-0.3-6-1
		c-1.8-0.7-3.3-1.6-4.6-2.8c-1.2-1.2-2.2-2.6-2.9-4.3c-0.7-1.7-1-3.5-1-5.6V180h8.2v20.5c0,0.9,0.1,1.8,0.4,2.6
		c0.2,0.8,0.6,1.6,1.1,2.2c0.5,0.7,1.2,1.2,2,1.6c0.8,0.4,1.8,0.6,2.9,0.6s2.1-0.2,2.9-0.6c0.8-0.4,1.5-0.9,2-1.6
		c0.5-0.7,0.9-1.4,1.1-2.2c0.2-0.8,0.3-1.7,0.3-2.6V180h8.2v21.2C106.2,203.2,105.8,205.1,105.1,206.8z"/>
	<path d="M137.1,213.4c-2.2,1-4.7,1.5-7.6,1.5c-2.6,0-5-0.4-7.3-1.3c-2.2-0.9-4.1-2.1-5.8-3.7c-1.6-1.6-2.9-3.5-3.8-5.7
		c-0.9-2.2-1.4-4.6-1.4-7.3c0-2.7,0.5-5.2,1.4-7.4c0.9-2.2,2.2-4.1,3.9-5.6c1.7-1.6,3.6-2.7,5.9-3.6c2.2-0.8,4.7-1.2,7.2-1.2
		c2.4,0,4.8,0.4,7.1,1.3c2.3,0.8,4.2,2.1,5.6,3.7l-5.6,5.6c-0.8-1.1-1.8-1.8-3-2.4c-1.2-0.5-2.5-0.8-3.8-0.8c-1.4,0-2.8,0.3-4,0.8
		c-1.2,0.5-2.2,1.3-3.1,2.2c-0.9,0.9-1.5,2-2,3.3c-0.5,1.3-0.7,2.6-0.7,4.1c0,1.5,0.2,2.9,0.7,4.2c0.5,1.3,1.1,2.4,2,3.3
		c0.8,0.9,1.9,1.6,3,2.1c1.2,0.5,2.5,0.8,3.9,0.8c1.6,0,3.1-0.3,4.3-1c1.2-0.6,2.2-1.5,2.9-2.5l5.7,5.4
		C141.2,211,139.3,212.4,137.1,213.4z"/>
	<path d="M160.4,187v27h-8.2v-27h-9.6v-7H170v7H160.4z"/>
	<path d="M173.8,214v-34h8.2v34H173.8z"/>
	<path d="M224.4,196.9c0,2.7-0.5,5.1-1.4,7.4c-0.9,2.2-2.2,4.1-3.9,5.7c-1.6,1.6-3.6,2.8-5.9,3.7c-2.3,0.9-4.7,1.3-7.4,1.3
		c-2.7,0-5.1-0.4-7.4-1.3c-2.3-0.9-4.2-2.1-5.9-3.7c-1.6-1.6-2.9-3.5-3.9-5.7c-0.9-2.2-1.4-4.7-1.4-7.4c0-2.7,0.5-5.2,1.4-7.4
		c0.9-2.2,2.2-4.1,3.9-5.6c1.6-1.5,3.6-2.7,5.9-3.5c2.3-0.8,4.7-1.2,7.4-1.2c2.7,0,5.1,0.4,7.4,1.2c2.3,0.8,4.2,2,5.9,3.5
		c1.6,1.5,2.9,3.4,3.9,5.6C223.9,191.7,224.4,194.1,224.4,196.9z M215.6,196.9c0-1.5-0.2-2.8-0.7-4.1c-0.5-1.3-1.1-2.4-2-3.3
		c-0.8-0.9-1.9-1.6-3.1-2.2c-1.2-0.5-2.5-0.8-4-0.8c-1.4,0-2.8,0.3-3.9,0.8c-1.2,0.5-2.2,1.2-3.1,2.2c-0.9,0.9-1.5,2-2,3.3
		c-0.5,1.3-0.7,2.7-0.7,4.1c0,1.5,0.2,2.9,0.7,4.2c0.5,1.3,1.1,2.4,2,3.3c0.8,0.9,1.9,1.7,3,2.2c1.2,0.5,2.5,0.8,3.9,0.8
		c1.4,0,2.7-0.3,3.9-0.8c1.2-0.5,2.2-1.3,3.1-2.2c0.9-0.9,1.5-2,2-3.3C215.4,199.8,215.6,198.4,215.6,196.9z"/>
	<path d="M251.4,214l-13.7-22.2h-0.1l0.2,22.2h-8v-34h9.4l13.6,22.2h0.1l-0.2-22.2h8v34H251.4z"/>
	<path d="M285.6,188.8c-0.7-0.9-1.6-1.6-2.8-2.1c-1.1-0.5-2.2-0.8-3.3-0.8c-0.5,0-1.1,0-1.7,0.1c-0.6,0.1-1.1,0.3-1.5,0.6
		c-0.4,0.3-0.8,0.6-1.1,1.1c-0.3,0.4-0.5,1-0.5,1.7c0,0.6,0.1,1.1,0.4,1.4c0.2,0.4,0.6,0.7,1.1,1c0.5,0.3,1,0.6,1.7,0.8
		c0.6,0.2,1.4,0.5,2.2,0.7c1.2,0.4,2.4,0.8,3.6,1.3c1.2,0.5,2.4,1.1,3.4,1.8c1,0.8,1.9,1.7,2.5,2.9c0.7,1.1,1,2.6,1,4.2
		c0,2-0.4,3.6-1.1,5.1c-0.7,1.4-1.7,2.6-2.9,3.5c-1.2,0.9-2.6,1.6-4.2,2.1c-1.6,0.4-3.2,0.7-4.8,0.7c-2.4,0-4.8-0.4-7.1-1.3
		c-2.3-0.8-4.2-2.1-5.7-3.6l5.4-5.5c0.8,1,1.9,1.9,3.3,2.6c1.4,0.7,2.7,1,4.1,1c0.6,0,1.2-0.1,1.8-0.2c0.6-0.1,1.1-0.3,1.5-0.6
		c0.4-0.3,0.8-0.7,1-1.2c0.3-0.5,0.4-1.1,0.4-1.7c0-0.6-0.2-1.2-0.5-1.6c-0.3-0.4-0.8-0.9-1.4-1.2c-0.6-0.4-1.3-0.7-2.2-1
		c-0.9-0.3-1.9-0.6-3-1c-1.1-0.4-2.2-0.8-3.2-1.2c-1-0.5-2-1.1-2.8-1.8c-0.8-0.8-1.5-1.7-2-2.7c-0.5-1.1-0.7-2.4-0.7-3.9
		c0-1.9,0.4-3.5,1.2-4.8c0.8-1.3,1.8-2.4,3-3.3c1.2-0.9,2.7-1.5,4.2-1.9c1.6-0.4,3.1-0.6,4.7-0.6c1.9,0,3.9,0.4,5.9,1.1
		c2,0.7,3.7,1.7,5.3,3.1L285.6,188.8z"/>
</g>
<g>
	<path class="st1" d="M-93.6,153.2 M-94.6,151.4c0.5,0.1,0.9,0.1,1.3,0.2c1,0.2,2,0.4,3,0.6c0.5,0.1,0.7-0.2,0.6-0.7
		c0.4,0.3,0.7,0.5,1,0.7c0.7,0.4,1.2,0.3,1.6-0.4c0.1-0.1-0.2-4.2-0.2-4.6c0-0.4-0.2-0.5-0.5-0.5c-2.6,0.2-4.4-1.1-6.2-2.8
		c-0.2-0.2-0.3-0.4-0.4-0.8c1.3,0,2.4,0,3.5,0c1.1,0,2.3,0,3.5,0c-0.3-6.2-0.7-12.5-1-18.7c0,0-0.1,0-0.1-0.1
		c-0.3,0.7-0.7,1.5-0.8,2.2c-0.1,0.9-0.7,1.6-1.1,2.3c-1.7,2.6-3.8,4.9-5.8,7.3c-1.4,1.8-3.1,3.3-5.2,4.3c-2,0.9-4,2-6.1,2.9
		c-0.7,0.3-1.7,0.1-2.5,0.2c0-0.1,0-0.2-0.1-0.2c0.6-0.5,1.2-1,1.8-1.4c1.8-1.3,3.7-2.6,5.1-4.3c2.8-3.4,5.8-6.7,8.3-10.4
		c1.6-2.5,3.2-5,4.9-7.5c0.2-0.3,0.4-0.7,0.7-1.2c-0.9,0-1.6,0-2.4,0c-1,0-1.9-0.1-2.9-0.1c-0.2,0-0.5,0-0.7,0c-0.6,0-1.2,0-1.7,0
		c-0.6,0-1.3,0.1-1.9,0c-1.1-0.3-2.1-0.7-3-1.3c-0.8-0.5-1.4-1.3-2.1-2c0.2-0.7,0.7-0.7,1.1-0.7c2.8,0.1,5.6,0.1,8.3,0.2
		c1.9,0,3.8,0.1,5.7,0.1c0.2,0,0.5-0.3,0.4-0.4c-0.2-1.9-0.4-3.8-0.6-5.8c-0.1-0.5-0.4-0.8-0.8-1c-0.5-0.3-0.9-0.7-1.4-1.1
		c1.8-1.5,3.5-0.5,5.1,0.1c1.6,0.6,1.6,2.1,1.8,3.4c0.2,1.4,0.3,2.8,0.4,4.2c0,0.5,0.2,0.7,0.8,0.7c2.4,0.1,4.8,0.3,7.3,0.5
		c1.9,0.1,3.7,0.3,5.6,0.5c0.2,0,0.4,0.2,0.5,0.4c0.3,0.5,0.5,1.1,0.8,1.6c0.4,0.7,0.2,1.1-0.5,1.3c-0.1,0-0.3,0.1-0.4,0.1
		c-1.3,0-2.6,0-3.9,0c-0.9,0-1.8-0.1-2.7-0.1c-2,0-4-0.1-6-0.5c-1.3-0.3-1.4-0.2-1.4,1.1c0,0.8,0.2,1.7,0.3,2.5
		c0,0.2,0.2,0.5,0.4,0.7c0.7,0.7,1.4,1.5,2.1,2.2c2.6,2.2,5,4.5,7.3,7.1c0.6,0.7,1.5,1.2,2.2,1.9c1.4,1.2,2.9,2.3,4.2,3.5
		c1.1,1,2.1,2,3.2,3c0.4,0.4,1.2,0.6,1.4,0.4c0.3,0.3,0.6,0.6,1,0.8c1.3,0.5,2.6,1,3.8,1.5c0.2,0.1,0.4,0.2,0.6,0.3
		c-0.3,0.6-0.4,1,0.1,1.5c0.3,0.2-0.1,1.1-0.4,1.2c-1,0.4-1,0.4-1.7,1.1c-0.2-0.1-0.3-0.1-0.6-0.2c0,0.3,0,0.6,0.1,1
		c-0.3-0.4-0.4-0.6-0.6-0.8c-0.1,0-0.1,0-0.2,0c0,0.4-0.1,0.8-0.1,1.2c-0.5-0.3-1-0.7-1.6-1c-0.1,0.2-0.1,0.4-0.1,0.4
		c-0.6-0.3-1.2-0.5-1.8-0.7c-1.8-0.7-3-2.1-4.2-3.4c-0.9-1-1.8-2-2.7-2.9c-2-1.8-3.7-3.9-5.5-6c-1.2-1.4-2.6-2.5-3.9-3.7
		c-0.8-0.8-1.7-1.6-2.5-2.4c-0.1,0-0.1,0-0.2,0c0.1,4.9,0.2,9.7,0.4,14.6c0.9,0.1,1.8,0.3,2.8,0.4c1.7,0.2,2.5,1.5,3.4,2.8
		c0.3,0.4-0.2,1-0.8,1c-0.6,0-1.3-0.1-1.9-0.1c-0.3-0.3-2.5-0.2-3.1-0.2c-0.2,0-0.5,0.1-0.5,0.2c0,0.6-0.2,4.4,0,4.5
		c0,0.6,0.3,1.3-0.3,1.8c-0.1,0.1-0.1,0.4-0.1,0.5c0.6,0.7,0.2,1.5,0.3,2.2c0,0.5-0.1,0.9-0.1,1.4c-0.1,1-0.6,1.3-1.6,1.4
		c-1.8,0.1-3.2-0.8-4.6-1.6c-1.3-0.7-2.4-1.5-3-3L-94.6,151.4z"/>
	<g>
		<path class="st1" d="M-97.4,96.7c-1.3-0.7-2.6-1.4-2.9-2.8c-0.3-1.4-0.5-2.8-0.4-4.3c0.2-4.1-0.5-8-0.9-12.1
			c-0.1-1.1-0.2-2.2-0.3-3.3c0.2-0.1-0.1-3.4-0.1-4.6c0-0.7,0-1.1,0-1.1c0-0.6,0-1.1,0-1.7c0-0.6,0.2-1.2-0.8-1
			c-0.2-0.9-0.2-1.7,0.6-2.4c1.2,0.4,2.5,0.9,3.9,1.3c0.7,0.3,1.1,0.8,1.2,1.5c0.1,0.9,0.2,1.8,0.3,2.7c0.1,0.9,0.2,1.8,0.3,2.7
			c0.2,1.4,0.6,2.7,0.9,4.1c0,0.2,0.1,0.4,0.2,0.6c1.4-0.3,2.7-0.7,4.1-0.9c2.2-0.5,4.5-0.9,6.7-1.3c1.8-0.4,3.4,0.2,4.8,1.1
			c0.5,0.3,0.5,0.9,0.4,1.4c-0.1,0.4-0.1,0.8-0.1,1.5c-0.9,1-2.3,1-3.7,1.2c-2.1,0.3-4.3,0.3-6.4,0.7c-1.7,0.3-3.4,0.6-5.1,0.7
			c-0.4,0-0.5,0.2-0.4,0.6c0.3,1.6,0.7,3.1,1,4.7c0.2,1.1,0.1,2.2,0.1,3.4c0,0.6,0,1.1,0.1,1.7c0.1,0.8,0.5,1.2,1.3,1.1
			c1.6-0.3,3.2-0.7,4.8-1.1c3-0.8,6.1-1.3,9.3-1.5c0-0.3,0.1-0.5,0-0.8c-0.1-4.3-0.1-8.5-0.3-12.8c-0.1-2.8-0.5-5.5-0.9-8.3
			c-0.2-1.9-0.6-3.7-0.9-5.6c-0.2-1.5-1.2-2-2.8-1.5c-2.4,0.7-4.8,1.3-7.1,1.9c-1,0.3-1.9,0.7-2.9,1c-2.3,0.7-4.5,0.5-6.6-0.7
			c-0.3-0.2-0.6-0.5-1-0.7c-0.6-0.3-0.5-0.9-0.6-1.4c0-0.1,0.3-0.3,0.4-0.4c1.8-0.6,3.6-1,5.4-1.4c1.6-0.4,3.1-0.9,4.7-1.3
			c2.7-0.7,5.5-1.5,8.2-2.2c0.7-0.2,1.5,0,2.2,0.3c1.6,0.7,2.9,1.7,4.1,3c0.4,0.5,0.6,1.2,0.8,1.9c0.2,0.7,0.3,1.5,0.4,2.2
			c0.1,0.4,0.2,0.9,0.2,1.3c0,1.5,0,2.9,0,4.4c0,1.4-0.1,2.9-0.1,4.3c0.1,2.8,0.2,5.6,0.4,8.4c0.1,1.7,0.3,3.3-0.1,5
			c-0.1,0.5,0,1.1,0.1,1.7c0.1,1.5,0.2,2.9,0.3,4.4c0,0.5-0.1,1-0.3,1.4c-0.5,1-1.2,1.8-2.2,2.3c-0.2,0.1-0.5,0.3-0.7,0.5
			c-0.8-0.5-0.8-0.9-0.1-1.7c0.3-0.2,0.5-0.5,1-0.9c-0.5,0-0.8,0-1.1,0c-0.3,0-0.5,0.1-0.7-0.3c-0.1-0.2-0.6-0.2-1-0.3
			c0-0.1-1.3,0.2-1.9,0.3c-1.2,0.2-2.4,0.5-3.6,0.7c-0.3,0-4.7,1.1-5.5,1.2c0-0.2-0.9,0.4-2,0.7L-97.4,96.7z"/>
	</g>
</g>
<g>
	<path class="st0" d="M665.9,442.8c0,0.1,0,0.2,0,0.2c-0.2,0.4-0.1,0.7,0.4,0.7c0.7,0,1.4,0.1,2.1-0.4c0.2-0.2,0.6-0.2,0.9-0.2
		c0.5,0,1,0,1.4,0c0.7,0,1.4-0.2,2-0.6c0.2-0.1,0.4-0.2,0.6-0.3c0.6-0.1,1.1-0.4,1.5-0.7c0.5-0.3,0.9-0.4,1.5-0.3
		c0.3,0.1,0.7,0.1,1,0.2c0.8,0.2,1.4-0.1,1.9-0.7c0.2-0.2,0.3-0.4,0.5-0.7c0.2-0.2,0.4-0.3,0.7-0.1c0.2,0.1,0.3,0.3,0.3,0.6
		c0,0.2,0,0.4-0.1,0.7c0,0.4,0.1,0.7,0.3,1c0.2,0.3,0.4,0.2,0.6,0c0.1-0.2,0.2-0.4,0.3-0.5c0.2-0.3,0.5-0.2,0.7,0.1
		c0.4,0.5,0.5,0.5,1.1,0.3c0.6-0.2,1-0.4,1.3-1c0.1-0.1,0.3-0.2,0.4-0.3c0.1-0.1,0.2-0.1,0.3-0.1c0.9-0.4,1.1-1.2,0.6-1.9
		c-0.1-0.2-0.3-0.4-0.5-0.7c-0.4-0.5-0.3-0.8,0.1-1.3c0.3-0.4,0.6-0.8,0.9-1.2c0.5-0.7,1-1.3,1.4-2c0.5-0.7,1-1.4,1.4-2.2
		c0.2-0.2,0.3-0.5,0.3-0.8c0.1-1.1,0.1-2.3-0.4-3.4c-0.1-0.2-0.2-0.3-0.2-0.5c0-0.2,0-0.6,0.1-0.7c0.4-0.5,0.8-0.9,1.2-1.3
		c0.2-0.1,0.4-0.2,0.7-0.2c0.5-0.1,0.9-0.3,1.1-0.7c0.2-0.4,0.6-0.5,1-0.5c0.4,0,0.6,0.2,0.6,0.6c0,0.2,0,0.5-0.2,0.7
		c-0.4,0.7-0.9,1.3-1.6,1.7c-0.2,0.1-0.4,0.3-0.6,0.4c-0.2,0.3-0.2,0.5,0.2,0.7c0.1,0,0.1,0,0.2,0.1c0.3,0.1,0.3,0.3,0.2,0.5
		c-0.2,0.3-0.2,0.6,0,0.8c0.2,0.3,0.4,0.7,0.7,0.9c0.6,0.5,1.6,0.1,1.7-0.6c0.1-0.5,0.8-1.2,1.3-1.2c1.1,0,1.9-0.6,2.7-1.1
		c0.7-0.5,1.5-1.1,2.2-1.6c0.7-0.5,1.2-1.2,1.4-2c0.2-0.6,0.5-1.1,0.7-1.6c0.1-0.2,0.2-0.4,0.3-0.7c0.2-1.2,1-2,1.9-2.6
		c1.4-0.9,2.1-2.1,2.1-3.8c0-0.6,0-1.2,0.3-1.8c0.1-0.2,0.1-0.4,0.2-0.6c0-0.5,0.2-0.9,0.5-1.3c0.3-0.5,0.6-1,0.8-1.6
		c0.1-0.4,0.1-0.8,0.1-1.1c0-0.5,0-0.9,0.3-1.3c0.1-0.3,0.2-0.6,0.2-0.9c0-1,0-2,0-3.1c0-0.2-0.1-0.4-0.2-0.6
		c-0.2-0.3-0.4-0.6-0.3-1c0-0.3,0-0.6,0-0.8c0-0.2,0-0.4-0.3-0.6c-0.1,0.2-0.1,0.4-0.1,0.6c-0.1,0.3-0.2,0.6-0.4,0.9
		c-0.1,0.2-0.4,0.3-0.7,0.3c-0.6,0-0.9-0.5-0.7-1c0.1-0.3,0.4-0.6,0.6-0.8c0.6-0.5,0.9-1.1,1-1.9c0-0.2,0-0.5,0-0.7
		c0-0.6-0.1-1-0.6-1.4c-0.4-0.4-0.7-0.9-1-1.3c-0.1-0.2-0.1-0.4,0.1-0.5c0.2-0.1,0.4-0.2,0.6-0.3c1.1-0.4,1.7-1.3,1.7-2.5
		c0-0.5,0-1,0-1.5c0-0.3,0.1-0.5,0.1-0.8c0.1-0.3,0.2-0.5,0.6-0.5c0.2,0,0.4-0.1,0.6-0.2c0.4-0.1,0.7-0.1,0.8,0.3
		c0.1,0.3,0.2,0.6,0.3,0.9c0,0.2,0,0.5,0,0.7c0,0.6,0.3,1,0.7,1.3c0.3,0.2,0.6,0.1,0.8-0.2c0.1-0.2,0.2-0.3,0.3-0.5
		c0.3-0.4,0.6-0.5,1-0.2c0.1,0,0.1,0.1,0.2,0.1c0.4,0.3,0.6,0.3,0.8-0.1c0.1-0.2,0.2-0.3,0.2-0.5c0-0.6,0-1.3,0-1.9
		c0-0.1,0-0.2-0.1-0.3c-0.1-0.3-0.3-0.3-0.5-0.2c-0.2,0.1-0.4,0.3-0.6,0.5c-0.5,0.5-1,0.7-1.7,0.5c-0.4-0.1-0.5-0.3-0.4-0.7
		c0.1-0.2,0.1-0.3,0.2-0.5c0.2-0.4,0.4-0.8,0.4-1.3c0-0.3,0.2-0.5,0.5-0.6c0.3-0.1,0.6,0,0.8,0.2c0.1,0.1,0.2,0.2,0.2,0.2
		c0.4,0.3,0.8,0.4,1.2,0.1c0.2-0.1,0.4-0.2,0.5-0.3c0.3,0.1,0.3,0.3,0.3,0.5c0,0.4,0,0.8,0.1,1.2c0,0.4,0.1,0.7,0.3,1
		c0.1,0.2,0.2,0.5,0.2,0.8c0,0.4,0,0.8,0,1.2c0,0.7,0.3,1.3,0.7,1.8c0.8,0.9,1.6,1.9,2.4,2.9c0.3,0.3,0.4,0.7,0.7,1.1
		c0.4,0.5,0.7,1,1.1,1.5c0.2,0.2,0.4,0.5,0.5,0.7c0.3,0.8,0.6,1.6,0.9,2.5c0.1,0.4,0.1,0.9,0,1.3c-0.1,0.9-0.4,1.8-0.5,2.7
		c-0.1,0.6-0.4,1-0.8,1.5c-1.4,1.5-1.6,3.4-0.4,5.2c0.1,0.1,0.2,0.3,0.2,0.4c0.1,0.3-0.1,0.4-0.4,0.4c-0.2,0-0.3-0.1-0.5-0.2
		c-0.5-0.2-1-0.2-1.4,0.1c-0.4,0.3-0.8,0.6-1.2,1c-0.3,0.3-0.5,0.7-0.5,1.1c0,0.6,0.1,1.1,0.2,1.7c0.1,0.5,0.3,0.9,0.5,1.3
		c0.6,0.8,1,1.7,1.1,2.8c0,0.3,0.1,0.5,0.2,0.8c0.2,0.9,0.2,1.8,0,2.8c-0.1,0.3-0.2,0.6-0.4,0.9c-0.2,0.3-0.3,0.7-0.5,1
		c-0.2,0.5-0.4,1-0.6,1.4c-0.3,0.7-0.5,1.4-0.4,2.1c0,0.5,0,0.9,0,1.4c0,1.1,0.4,2,1.1,2.8c0.3,0.4,0.7,0.7,1,1
		c0.4,0.4,0.4,0.7-0.2,1c-0.4,0.2-0.7,0.4-1.1,0.6c-0.6,0.3-0.8,0.7-0.8,1.3c0,0.8-0.1,1.6,0,2.3c0,0.7-0.2,1.2-0.8,1.5
		c-0.4,0.2-0.8,0.5-1.2,0.9c-0.2,0.2-0.3,0.5-0.4,0.7c-0.1,0.4-0.3,0.6-0.7,0.7c-0.4,0.1-0.7,0-0.7-0.5c0-0.4-0.1-0.8-0.2-1.2
		c0-0.4-0.1-0.7-0.1-1.1c0-0.4,0-0.7,0-1.1c0-0.5,0.1-0.8,0.5-1.1c0.3-0.2,0.6-0.6,0.9-0.9c0.3-0.5,0.2-0.9-0.4-1
		c-0.2,0-0.5,0-0.8,0.1c-0.4,0.1-0.7,0.3-1,0.4c-0.3,0.2-0.5,0.4-0.6,0.8c0,0.6,0.1,1.1,0.4,1.6c0.1,0.2,0.3,0.4,0.3,0.6
		c0.1,0.4,0.1,0.7-0.2,1c-0.3,0.3-0.7,0.2-0.8-0.2c-0.3-0.7-0.3-0.7-1-0.7c-0.2,0-0.5,0-0.7,0c-1,0.1-1.6,1-1.4,2
		c0,0.2,0.1,0.3,0.2,0.4c0.2,0.3,0.3,0.5,0.3,0.9c0,0.3,0,0.6,0,0.9c0,0.3-0.1,0.5-0.3,0.7c-0.2,0.2-0.4,0.4-0.6,0.6
		c-0.3,0.2-0.5,0.5-0.6,0.9c-0.1,0.4-0.4,0.4-0.7,0.1c-0.3-0.3-0.4-0.8-0.4-1.2c0-0.5,0-0.9,0-1.4c0-0.1,0-0.3,0-0.4
		c-0.1-0.7-0.4-0.9-1-0.6c-0.4,0.2-0.9,0.4-1.3,0.7c-0.3,0.2-0.5,0.5-0.5,0.8c0,0.6-0.2,1.1-0.6,1.6c-0.3,0.2-0.3,0.6-0.3,0.9
		c-0.1,0.7-0.1,0.7-0.8,0.7c-0.9,0-1.8,0.1-2.7,0c-1.4,0-2.8,0.3-4.1,0.7c-0.3,0.1-0.7,0.2-1,0.3c0,0,0-0.1-0.1-0.1
		c0.2-0.2,0.4-0.3,0.6-0.5c0.2-0.1,0.4-0.3,0.6-0.4c0.1-0.1,0.2-0.3,0.1-0.4c0-0.1-0.3-0.2-0.4-0.2c-0.3,0-0.7,0.1-1,0.2
		c-0.1,0-0.2,0.1-0.4,0.1c-0.6,0.3-0.8,0.3-1.1-0.4c-0.1-0.3-0.1-0.6-0.2-1c0-0.2,0-0.5,0-0.8c-0.7,0.1-1.3,0.3-1.7,0.8
		c-0.3,0.4-0.5,0.8-0.7,1.2c-0.2,0.4-0.1,0.6,0.3,0.8c0.6,0.4,1.3,0.8,1.9,1.2c0.3,0.2,0.6,0.4,0.9,0.7c0.3,0.2,0.6,0.5,0.4,1
		c-0.2,0.4-0.5,0.6-1,0.7c-1,0.1-1.9,0.4-2.8,0.9c-0.4,0.2-0.6,0.5-0.6,1c0.1,0.6-0.2,1.1-0.7,1.4c-0.3,0.2-0.5,0.4-0.8,0.6
		c-0.3,0.2-0.4,0.5-0.4,0.9c0,0.5,0,0.9,0,1.4c0,0.4-0.1,0.6-0.5,0.8c-0.3,0.1-0.5,0.4-0.7,0.6c-0.3,0.3-0.6,0.4-1,0.2
		c-0.3-0.1-0.6-0.3-0.9-0.4c-0.3-0.1-0.6-0.3-0.9-0.4c-0.4-0.1-0.7-0.3-1-0.7c-0.2-0.3-0.5-0.6-0.7-1c-0.1-0.2-0.3-0.4-0.5-0.5
		c-0.5-0.3-0.8-0.6-0.7-1.1c0.1-0.6,0-1.2-0.1-1.8c-0.1-0.6,0-0.8,0.5-1.1c0.6-0.4,1-0.9,1.4-1.5c0.3-0.3,0.2-0.8,0.1-1.2
		c-0.1-0.3-0.3-0.4-0.6-0.3c-0.9,0.3-1.8,0.1-2.8,0c-1-0.1-2-0.3-3-0.4c-0.3,0-0.5,0-0.8,0c-0.4,0-0.6,0.2-0.9,0.4
		c-0.5,0.4-1,0.7-1.5,1.1c-0.3,0.2-0.6,0.4-0.8,0.8c-0.3,0.6-0.9,0.7-1.4,0.3c-0.4-0.3-0.4-0.3-0.8,0c-0.2,0.1-0.4,0.2-0.6,0.2
		c-0.7,0-0.8,0-1,0.6c-0.1,0.3-0.3,0.4-0.5,0.2c-0.7-0.4-1.3-0.1-1.7,0.5c-0.3,0.3-0.7,0.5-1.1,0.6c-0.8,0.1-1.4,0.3-1.9,0.9
		c-0.5,0.5-1.1,0.3-1.4-0.2c-0.3-0.5-0.7-0.7-1.2-0.6c-0.5,0-1,0.5-0.8,1.1c0.2,0.4,0,0.9-0.2,1.3c-0.3,0.5-0.4,0.9-0.4,1.5
		c0,0.3-0.1,0.6-0.1,0.9c-0.4-0.2-0.8-0.4-1.2-0.7c-0.8-0.9-1.9-1.2-3.1-1c-0.3,0-0.5,0.2-0.7,0.3c-0.4,0.2-0.7,0.5-1.1,0.8
		c-0.4,0.3-0.8,0.2-1-0.2c0-0.1-0.1-0.2-0.1-0.2c-0.2-0.4-0.2-0.4-0.7-0.4c-0.1,0-0.2-0.1-0.4-0.1c-0.1-0.1-0.3-0.2-0.4-0.3
		c-0.3-0.1-0.3-0.3-0.3-0.5c0.1-0.4,0.1-0.8,0.1-1.2c0-0.7,0.3-0.9,0.9-0.9c0.3,0,0.6,0,0.9-0.2c0.1-0.1,0.3-0.1,0.5-0.2
		c0.6-0.1,1-0.4,1.2-0.9c0.2-0.3,0.4-0.7,0.7-1c0.2-0.3,0.5-0.4,0.9-0.4c0.3,0,0.6-0.1,0.8-0.3c0.2-0.2,0.4-0.4,0.6-0.7
		c0.4-0.5,0.9-1,1.3-1.4c0.1-0.2,0.3-0.3,0.4-0.4c0.7-1,1.6-1.8,2.5-2.6c0.5-0.4,0.9-0.9,1.2-1.5c0.2-0.4,0.6-0.7,1-1
		c0.4-0.3,0.8-0.6,1.2-0.9C664.9,442.6,665.4,442.6,665.9,442.8z"/>
	<path class="st0" d="M714.5,360.6c0.1-0.2,0.1-0.2,0.2-0.3c0.3-0.2,0.3-0.5,0.3-0.8c0-0.6,0-1.2,0-1.8c0-0.3,0.1-0.6,0.2-0.9
		c0.1-0.2,0.2-0.4,0.1-0.6c-0.1-0.6-0.2-1.2-0.7-1.6c-0.5-0.4-0.8-1.1-1.2-1.6c-0.4-0.5-0.2-1.4,0.3-1.8c0,0,0,0,0,0
		c0.5-0.3,0.8-0.7,0.7-1.3c0-0.3,0-0.6,0.3-0.8c0.4-0.2,0.7-0.1,1,0.1c0.2,0.1,0.3,0.2,0.4,0.4c1.1,1.2,2.2,2.5,3.4,3.7
		c0.2,0.2,0.3,0.3,0.5,0.5c0.7,0.6,1.3,1.3,2,1.9c0.3,0.2,0.6,0.5,0.9,0.7c0.4,0.3,0.9,0.7,1.3,1c0.5,0.4,1.1,0.9,1.8,1
		c0.3,0,0.5,0.2,0.7,0.4c0.9,0.8,2,1.1,3.2,1.2c1,0.1,2,0.2,3,0.3c0.3,0,0.6,0,0.9,0c0.1,0,0.2,0,0.3-0.1c0.5-0.3,1-0.7,1.4-1.1
		c0.2-0.1,0.3-0.4,0.3-0.6c0.1-0.5,0.4-0.8,0.7-1.2c0.3-0.3,0.6-0.6,1-1c0,0.9,0,1.6-0.5,2.3c-0.6,0.6-0.7,1.4-0.6,2.2
		c0.1,0.8,0.2,1.5,0.7,2.2c0.4,0.4,0.6,0.9,0.9,1.4c0.1,0.2,0.2,0.4,0.4,0.5c0.4,0.4,0.8,0.5,1.4,0.3c0.4-0.2,0.8-0.3,1.2-0.5
		c-0.4,0.5-0.8,1.1-1.2,1.6c-0.2,0.3-0.6,0.5-0.9,0.7c-0.7,0.2-1.3,0.6-1.7,1.2c-0.1,0.1-0.2,0.2-0.3,0.3c-0.3,0.2-0.5,0.2-0.7,0
		c-0.1-0.1-0.2-0.2-0.3-0.3c-0.2-0.1-0.4-0.1-0.5-0.1c-0.1,0.1-0.2,0.3-0.2,0.5c0,0.2,0.1,0.3,0.2,0.5c0.1,0.1,0.2,0.3,0.3,0.5
		c-0.6,0.1-1.1,0.1-1.6,0c-0.2-0.1-0.5-0.2-0.7-0.3c-0.6-0.2-1.2-0.1-1.6,0.5c-0.2,0.2-0.4,0.4-0.6,0.5c-0.6,0.7-1.2,1.3-1.8,2
		c0,0,0,0,0,0c-0.6,0.5-0.8,1.2-1.3,1.8c-0.3,0.4-0.5,1-0.5,1.5c-0.1,0.9-0.1,1.9-0.1,2.8c0,0.3,0,0.5-0.1,0.8c-0.2,0-0.3,0-0.4-0.1
		c-0.8-0.6-1.8-0.7-2.8-0.9c-1-0.2-1.8-0.6-2.6-1.2c-1-0.7-1.9-1.4-2.9-2.1c-0.2-0.1-0.4-0.2-0.7-0.2c-1.2-0.2-2.3,0-3.4,0.4
		c-0.2,0.1-0.4,0.3-0.6,0.4c-0.5,0.6-1.1,1.2-1.6,1.9c-0.1,0.1-0.2,0.2-0.3,0.3c-0.1-0.2-0.2-0.4-0.2-0.5c-0.2-0.4-0.4-0.7-0.6-1.1
		c-0.2-0.3-0.4-0.5-0.8-0.5c-0.9-0.1-1.7,0-2.4,0.8c-0.6,0.6-0.3,2.2,0.4,2.7c0.4,0.3,0.9,0.4,1.4,0.4c0.4,0,0.7,0,1.1,0
		c0.4,0,0.5,0.1,0.5,0.5c0,0.1,0,0.2,0,0.3c0,0.3,0.1,0.4,0.3,0.5c0.6,0.2,1.1,0.4,1.7,0.6c0.5,0.2,0.5,0.3,0.2,0.7
		c-0.2,0.3-0.5,0.5-0.7,0.8c-0.1,0.1-0.2,0.2-0.3,0.2c-0.6,0-1.3,0-1.8-0.5c-0.4-0.4-0.5-0.4-0.9,0c-0.2,0.2-0.4,0.4-0.5,0.6
		c-0.3,0.4-0.5,0.8-0.4,1.3c0.1,0.6,0,1.1-0.5,1.5c-0.2,0.2-0.4,0.2-0.6,0.1c-0.2-0.1-0.5-0.2-0.7-0.2c-0.6-0.2-0.9-0.7-1-1.3
		c-0.1-0.6,0-1.1,0.5-1.5c0.4-0.3,0.5-0.6,0.5-1.1c0-0.9-0.6-1.4-1.2-2c-0.4-0.4-0.9-0.7-1.4-1c-0.1-0.1-0.3-0.3-0.3-0.5
		c0-0.7-0.1-1.4,0-2c0.1-0.7,0.5-1.4,1.2-1.8c0.8-0.4,1.6-1,2.2-1.7c0.2-0.3,0.4-0.6,0.5-0.9c0.2-0.4,0.1-0.8-0.3-1.1
		c-0.3-0.2-0.5-0.5-0.6-0.9c-0.1-0.5,0.1-0.9,0.6-1.1c0.5-0.2,1-0.2,1.5,0c0.1,0,0.3,0.2,0.4,0.3c0.2,0.2,0.3,0.3,0.6,0.3
		c0.6,0,1.3,0,1.9,0c0.9,0,1.5-0.7,1.5-1.5c0-0.6,0-1.2,0.1-1.8c0-0.2,0-0.5-0.3-0.6c-0.2-0.1-0.2-0.3-0.2-0.5
		c0.1-0.4,0.3-0.7,0.6-0.9c0.6-0.4,0.7-0.8,0.7-1.5c0-0.4,0-0.7,0-1.1C715,361.2,715,360.8,714.5,360.6z"/>
	<path class="st0" d="M650.8,457.6c0.3,0.6,0.5,1,0.7,1.5c0.3,0.6,0.8,1.1,1.4,1.5c0.7,0.4,1.4,0.5,2.1-0.1c0.4-0.3,0.9-0.3,1.3,0
		c0.4,0.3,0.5,0.8,0.4,1.2c-0.1,0.2-0.2,0.3-0.3,0.5c-0.1,0.2-0.2,0.3-0.3,0.5c-0.1,0.3,0,0.6,0.4,0.7c0,0,0.1,0,0.1,0
		c0.7-0.1,1.1,0.3,1.4,0.9c0.2,0.5,0.6,0.9,0.8,1.4c0.3,0.5,0.3,1,0,1.5c-0.3,0.3-0.4,0.7-0.5,1.1c-0.1,0.3-0.3,0.7-0.5,0.9
		c-0.7,0.6-1,1.4-1,2.3c0,0.6-0.2,1.2-0.4,1.7c-0.2,0.4-0.3,0.9-0.4,1.3c-0.1,1,0,1.9-0.1,2.9c0,0.6-0.1,1.3-0.2,1.9
		c0,0.2-0.2,0.5-0.3,0.7c-0.3,0.4-0.6,0.3-0.9,0c-0.1-0.1-0.1-0.2-0.2-0.3c-0.3-0.3-0.7-0.3-0.9,0.1c-0.1,0.2-0.1,0.4-0.1,0.6
		c0,0.3-0.1,0.5-0.1,0.8c0,0.3-0.2,0.5-0.4,0.7c-0.4,0.3-0.8,0.6-1.2,0.8c-0.2,0.1-0.5,0.2-0.8,0.3c-0.2,0-0.5,0.1-0.5-0.2
		c0-0.1,0-0.4,0.1-0.5c0.1-0.2,0.3-0.4,0.5-0.6c0.7-0.7,0.7-1.4-0.2-2c-0.5-0.3-0.6-0.7-0.5-1.2c0-0.4,0.1-0.5,0.5-0.6
		c0.1,0,0.2-0.1,0.3-0.2c-0.2-0.3-0.4-0.3-0.6-0.2c-0.4,0.3-0.9,0.6-1.3,1c-0.3,0.3-0.3,0.7,0,1.1c0.2,0.3,0.5,0.6,0.7,0.9
		c0.3,0.4,0.4,0.7,0.2,1.2c-0.1,0.3-0.3,0.5-0.6,0.4c-0.3,0-0.6-0.1-0.9-0.1c-0.3-0.1-0.7-0.1-1-0.2c-0.4,0-0.7-0.2-0.8-0.5
		c-0.2-0.4-0.2-0.8,0.1-1.1c0.1-0.1,0.1-0.2,0.2-0.2c0.5-0.5,0.6-1.1,0.4-1.8c-0.1-0.2-0.2-0.4-0.4-0.5c-0.5-0.3-0.7-0.7-0.8-1.2
		c-0.2-0.7-0.2-1.3,0.3-1.9c0.5-0.6,1-1.4,1.6-2c0.7-0.7,0.6-1.6,0.6-2.5c0-0.2-0.3-0.3-0.4-0.4c0,0,0.1-0.1,0.2-0.2
		c0.5-0.5,0.7-1.4,0.3-2c-0.5-0.7-0.9-1.4-1.4-2.1c-0.2-0.2-0.4-0.4-0.7-0.5c-0.4-0.2-0.8,0-0.8,0.4c-0.1,0.7-0.1,1.4-0.1,2.1
		c0,0.3,0.2,0.4,0.5,0.3c0.2,0,0.5-0.1,0.7-0.1c0.3,0,0.5,0.1,0.6,0.3c0.1,0.3,0.1,0.5-0.1,0.7c-0.2,0.3-0.5,0.6-0.7,0.8
		c-0.1,0.1-0.3,0.2-0.5,0.3c-0.2,0.1-0.4,0-0.4-0.3c0-0.2,0-0.4,0-0.6c0-0.2,0-0.5-0.2-0.6c-0.2-0.1-0.5,0-0.7,0.2
		c-0.3,0.3-0.6,0.6-1,0.8c-0.2,0.2-0.4,0.4-0.7,0.5c-0.2,0.1-0.4,0.1-0.6,0.2c0-0.1-0.1-0.2,0-0.2c0.3-0.7,0-1.2-0.5-1.6
		c-0.4-0.3-0.5-0.7-0.5-1.1c0-0.2-0.1-0.5,0.2-0.6c0.3-0.1,0.5,0.1,0.6,0.3c0.2,0.2,0.3,0.5,0.4,0.7c0.1,0.4,0.4,0.6,0.7,0.6
		c0.4,0.1,0.7-0.2,0.5-0.6c-0.2-0.6-0.6-1.1-1.3-1.3c-0.5-0.1-0.9-0.3-1.1-0.7c-0.1-0.2-0.3-0.3-0.4-0.5c-0.4-0.4-0.5-0.8-0.3-1.1
		c0.2-0.4,0.7-0.6,1.2-0.4c0.2,0.1,0.5,0.2,0.8,0.3c0-0.3,0-0.5,0-0.8c0-0.7,0.1-0.8,0.8-0.8c0.1,0,0.1,0,0.2,0c0.8,0,0.8,0,1.1-0.8
		c0.1-0.5,0.4-0.6,0.9-0.5c0.8,0.2,1.2,0,1.3-0.8c0.2-1,1.3-1.9,2.3-1.8c0.3,0,0.5-0.1,0.7-0.3C650.3,457.9,650.5,457.8,650.8,457.6
		z"/>
	<path class="st0" d="M661.1,466.9c0.2-0.3,0.3-0.6,0.5-0.9c0.2-0.4,0.4-0.8,0.5-1.2c0.1-0.3,0.2-0.6,0.3-0.8c0.1-0.2,0.2-0.4,0-0.7
		c-0.1-0.1-0.2-0.3-0.2-0.4c-0.4-0.7-0.7-0.9-1.5-0.9c-0.5,0-0.9,0-1.4-0.1c0.2,0,0.4-0.1,0.7-0.1c0.6-0.1,1.1-0.4,1.6-0.8
		c0.5-0.5,1-0.9,1.5-1.3c0.2-0.2,0.3-0.4,0.4-0.7c0.1-0.3,0.3-0.6,0.4-0.8c0.1-0.2,0.2-0.4,0.2-0.7c0.1-0.6,0.4-1.1,0.8-1.5
		c0.5-0.4,0.8-0.3,1.2,0.1c0.2,0.2,0.4,0.5,0.6,0.7c0.3,0.4,0.5,0.4,0.9,0.1c0.3-0.3,0.7-0.4,1.1-0.4c0.4,0,0.8-0.1,1.1-0.3
		c0.3-0.2,0.5-0.5,0.5-0.9c0-0.6,0.2-1,0.8-1.3c0.3-0.2,0.7-0.5,1-0.7c0.4-0.3,0.9-0.5,1.4-0.2c0.2,0.2,0.5,0.2,0.7,0
		c0.2-0.2,0.4-0.1,0.6,0c0.2,0.1,0.5,0.2,0.7,0.3c0.1,0.1,0.3,0.1,0.4,0.2c0.2,0.4,0.6,0.4,0.9,0.4c0.1,0,0.3,0,0.4,0
		c0.2,0,0.3,0.1,0.3,0.3c0,0.6,0.2,1,0.7,1.4c0.5,0.4,0.3,1.4-0.3,1.9c-0.4,0.4-0.9,0.7-1.3,1.1c-0.8,0.7-1.3,1.7-1.7,2.6
		c0,0.1-0.1,0.2-0.1,0.3c-0.2,0.7-0.4,0.8-0.9,0.3c-0.3-0.2-0.5-0.5-0.8-0.8c-0.7-0.7-1.5-1-2.5-0.9c-0.3,0-0.5,0.2-0.7,0.4
		c-0.2,0.4-0.6,0.6-1,0.8c-0.7,0.3-1.1,0.7-1.1,1.5c0,0.8-0.6,1.4-1.1,2.1c-0.1,0.1-0.2,0.2-0.3,0.3c-0.4,0.5-0.5,0.6-0.2,1.2
		c0.2,0.5,0.1,0.7-0.4,0.6c-0.5,0-0.8,0.1-1.2,0.4c-0.4,0.4-0.7,0.3-1-0.2c-0.2-0.4-0.5-0.7-0.7-1.1c-0.4-0.5-0.7-0.4-1.1,0
		c-0.2,0.2-0.3,0.5-0.5,0.7C661.2,466.9,661.1,466.9,661.1,466.9z"/>
	<path class="st0" d="M700,420.1c-0.3-0.4-0.3-0.6-0.2-0.9c0.1-0.4,0.1-0.7-0.3-1c-0.3-0.2-0.3-0.5,0-0.8c0.2-0.2,0.3-0.5,0.4-0.8
		c0.1-0.4,0.2-0.7,0.4-1c0.2-0.3,0.5-0.4,0.7-0.3c0.3,0.1,0.4,0.4,0.2,0.8c-0.1,0.3-0.3,0.6-0.3,0.9c-0.1,0.4,0,0.6,0.5,0.6
		c0.3,0,0.4,0.1,0.3,0.4c0,0.1-0.1,0.2-0.1,0.3C701.1,419.1,700.5,419.5,700,420.1z"/>
	<path class="st0" d="M677.8,452.6c0.1-0.3,0.2-0.6,0.4-0.8c0.3-0.4,0.7-0.8,1-1.1c0.2-0.2,0.3-0.3,0.5-0.2c0.2,0.1,0.3,0.3,0.3,0.5
		c-0.1,0.4-0.2,0.7-0.4,1c-0.1,0.2-0.2,0.5-0.3,0.7c-0.1,0.7-0.3,0.9-0.7,0.9C678.2,453.6,677.9,453.2,677.8,452.6z"/>
</g>
<g>
	<path class="st1" d="M49.5,129.3c2.3,6.9,8.8,12,16.5,12c9.6,0,17.4-7.8,17.4-17.2V74c0-3.9,3.1-6.9,7-6.9c3.8,0,6.9,3,6.9,6.9v50
		c0,17.2-14.1,31.2-31.3,31.2c-13.8,0-25.7-9.1-29.7-21.7c-1.3-3.8,0.9-7.7,4.4-8.7C44.4,123.6,48.4,125.6,49.5,129.3z"/>
	<path class="st1" d="M154.1,155.2c-20.3,0-36.4-16.4-36.4-36.4V74c0-3.9,3-6.9,6.9-6.9c3.8,0,7,3,7,6.9v44.8
		c0,12.3,10.1,22.4,22.4,22.4c12.5,0,22.4-10.1,22.4-22.4V74c0-3.9,3.1-6.9,7-6.9s6.9,3,6.9,6.9v44.8
		C190.5,138.8,174.2,155.2,154.1,155.2z"/>
	<path class="st1" d="M216.2,109.9c0.1-24.9,21-45.2,46.2-45.3c11.1,0,21.1,3.7,29.1,9.8c3,2.5,3.5,6.9,1.3,10.1
		c-2.5,3.1-7.2,3.7-10.1,1.4c-5.5-4.5-12.5-6.9-20.3-6.9c-8.7,0-16.7,3.5-22.7,9.1c-5.7,5.8-9.2,13.3-9.2,21.9
		c0,8.6,3.5,16.4,9.2,21.9c5.9,5.5,14,9.1,22.7,9.1c7.8,0,14.6-2.4,20.3-6.9c2.9-2.1,7.6-1.6,10.1,1.4c2.3,3.1,1.8,7.7-1.3,10.1
		c-7.9,6.2-18,9.8-29.1,9.8C237.2,155.2,216.3,134.9,216.2,109.9z"/>
</g>
<g>
	<path d="M141.4,126.5c-1.2,0-2.1-0.9-2.1-2.1c0-1.1,0.9-2.1,2.1-2.1h22.1c1.2,0,2.1,1,2.1,2.1c0,1.2-0.9,2.1-2.1,2.1H141.4z"/>
	<path d="M154.6,100.1h8.9c1.1,0,2,0.9,2,1.9c0,1-0.9,2-2,2h-8.9c-2.1,0-3.8,1.8-3.8,3.9c0,2.1,1.7,3.7,3.8,3.7h8.9
		c0.1,0,0.2,0,0.4,0.1c0.9,0.2,1.6,1,1.6,2c0,1.1-0.9,2-2,2h-8.9h-5.8c-1.1,0-2-0.9-2-2c0-0.8,0.4-1.5,1.2-1.8
		c-0.7-1.1-1.2-2.5-1.2-4C146.9,103.6,150.4,100.1,154.6,100.1z"/>
	<path d="M156.3,94.1c-5.2,0-9.4-4.3-9.4-9.5c0-2.2,0.8-4.3,2.1-6c0.7-0.9,1.9-1,2.8-0.4c0.9,0.7,1,1.9,0.4,2.8
		c-0.7,1-1.2,2.2-1.2,3.6c0,3,2.5,5.5,5.4,5.5s5.4-2.5,5.4-5.5c0-1.3-0.5-2.6-1.2-3.6c-0.6-0.8-0.5-2.1,0.4-2.8
		c0.8-0.6,2-0.4,2.8,0.4c1.2,1.6,2,3.7,2,6C165.6,89.7,161.4,94.1,156.3,94.1z"/>
	<path d="M160.3,69c0-1.5,1.3-2.8,2.8-2.8s2.8,1.3,2.8,2.8s-1.2,2.8-2.8,2.8S160.3,70.5,160.3,69z"/>
</g>
<g>
</g>
<g>
</g>
<g>
</g>
<g>
</g>
<g>
</g>
<g>
</g>
<g>
</g>
<g>
</g>
<g>
</g>
<g>
</g>
<g>
</g>
<g>
</g>
<g>
</g>
<g>
</g>
<g>
</g>
</svg>
